<svg width="211" height="64" viewBox="0 0 211 64" fill="none" xmlns="http://www.w3.org/2000/svg">
<path d="M38.8323 43.1408C38.8323 43.8519 38.3132 44.4445 37.794 44.4445H28.7608C28.1379 44.4445 27.6187 43.8519 27.6187 43.1408V32.8296C27.6187 32.1185 28.1379 31.5259 28.7608 31.5259H37.794C38.417 31.5259 38.9362 32.1185 38.9362 32.8296V43.1408H38.8323Z" fill="#298B15"/>
<path d="M25.3345 12.2074C25.3345 12.9185 24.8153 13.5111 24.1923 13.5111H15.1592C14.5362 13.5111 14.017 12.9185 14.017 12.2074V1.89629C14.017 1.18518 14.5362 0.59259 15.1592 0.59259H24.1923C24.8153 0.59259 25.3345 1.18518 25.3345 1.89629V12.2074Z" fill="#298B15"/>
<path d="M38.8323 12.2074C38.8323 12.9185 38.3132 13.5111 37.794 13.5111H28.7608C28.1379 13.5111 27.6187 12.9185 27.6187 12.2074V1.89629C27.6187 1.18518 28.1379 0.59259 28.7608 0.59259H37.794C38.417 0.59259 38.9362 1.18518 38.9362 1.89629V12.2074H38.8323Z" fill="#298B15"/>
<path d="M11.8366 27.6148C11.8366 28.3259 11.3175 28.9185 10.6945 28.9185H1.66128C1.0383 28.9185 0.622986 28.3259 0.622986 27.7333V17.4222C0.622986 16.7111 1.14213 16.1185 1.76511 16.1185H10.7983C11.4213 16.1185 11.9404 16.7111 11.9404 17.4222V27.6148H11.8366Z" fill="#298B15"/>
<path d="M25.3345 27.6148C25.3345 28.3259 24.8153 28.9185 24.1923 28.9185H15.1592C14.5362 28.9185 14.017 28.3259 14.017 27.7333V17.4222C14.017 16.7111 14.5362 16.1185 15.1592 16.1185H24.1923C24.8153 16.1185 25.3345 16.7111 25.3345 17.4222V27.6148Z" fill="#298B15"/>
<path d="M11.8366 43.1408C11.8366 43.8519 11.3175 44.4445 10.6945 44.4445H1.66128C1.0383 44.4445 0.622986 43.8519 0.622986 43.1408V32.8296C0.622986 32.1185 1.14213 31.5259 1.76511 31.5259H10.7983C11.4213 31.5259 11.9404 32.1185 11.9404 32.8296V43.1408H11.8366Z" fill="#298B15"/>
<path d="M25.3345 43.1408C25.3345 43.8519 24.8153 44.4445 24.1923 44.4445H15.1592C14.5362 44.4445 14.017 43.8519 14.017 43.1408V32.8296C14.017 32.1185 14.5362 31.5259 15.1592 31.5259H24.1923C24.8153 31.5259 25.3345 32.1185 25.3345 32.8296V43.1408Z" fill="#298B15"/>
<path d="M11.8366 58.5481C11.8366 59.2593 11.3175 59.8518 10.6945 59.8518H1.66128C1.0383 59.8518 0.622986 59.2593 0.622986 58.5481V48.237C0.622986 47.5259 1.14213 47.0518 1.76511 47.0518H10.7983C11.4213 47.0518 11.9404 47.6444 11.9404 48.3556V58.5481H11.8366Z" fill="#298B15"/>
<path d="M25.3345 58.5481C25.3345 59.2593 24.8153 59.8518 24.1923 59.8518H15.1592C14.5362 59.8518 14.017 59.2593 14.017 58.5481V48.237C14.017 47.5259 14.5362 47.0518 15.1592 47.0518H24.1923C24.8153 47.0518 25.3345 47.6444 25.3345 48.3556V58.5481Z" fill="#298B15"/>
<path d="M12.3557 7.11111C12.3557 11.0222 9.55234 14.2222 6.12596 14.2222C2.8034 14.1037 0 11.0222 0 7.11111C0 3.2 2.8034 0 6.22979 0C9.65617 0 12.3557 3.2 12.3557 7.11111Z" fill="#FF0000"/>
<path d="M49.4716 20.3636V32H47.0114V20.3636H49.4716ZM61.2287 20.3636V32H59.1037L54.0412 24.6761H53.956V32H51.4957V20.3636H53.6548L58.6776 27.6818H58.7798V20.3636H61.2287ZM69.5739 23.7102C69.5284 23.2519 69.3333 22.8958 68.9886 22.642C68.6439 22.3883 68.1761 22.2614 67.5852 22.2614C67.1837 22.2614 66.8447 22.3182 66.5682 22.4318C66.2917 22.5417 66.0795 22.6951 65.9318 22.892C65.7879 23.089 65.7159 23.3125 65.7159 23.5625C65.7083 23.7708 65.7519 23.9527 65.8466 24.108C65.9451 24.2633 66.0795 24.3977 66.25 24.5114C66.4205 24.6212 66.6174 24.7178 66.8409 24.8011C67.0644 24.8807 67.303 24.9489 67.5568 25.0057L68.6023 25.2557C69.1098 25.3693 69.5758 25.5208 70 25.7102C70.4242 25.8996 70.7917 26.1326 71.1023 26.4091C71.4129 26.6856 71.6534 27.0114 71.8239 27.3864C71.9981 27.7614 72.0871 28.1913 72.0909 28.6761C72.0871 29.3883 71.9053 30.0057 71.5455 30.5284C71.1894 31.0473 70.6742 31.4508 70 31.7386C69.3295 32.0227 68.5208 32.1648 67.5739 32.1648C66.6345 32.1648 65.8163 32.0208 65.1193 31.733C64.4261 31.4451 63.8845 31.0189 63.4943 30.4545C63.108 29.8864 62.9053 29.1837 62.8864 28.3466H65.267C65.2936 28.7367 65.4053 29.0625 65.6023 29.3239C65.803 29.5814 66.0701 29.7765 66.4034 29.9091C66.7405 30.0379 67.1212 30.1023 67.5455 30.1023C67.9621 30.1023 68.3239 30.0417 68.6307 29.9205C68.9413 29.7992 69.1818 29.6307 69.3523 29.4148C69.5227 29.1989 69.608 28.9508 69.608 28.6705C69.608 28.4091 69.5303 28.1894 69.375 28.0114C69.2235 27.8333 69 27.6818 68.7045 27.5568C68.4129 27.4318 68.0549 27.3182 67.6307 27.2159L66.3636 26.8977C65.3826 26.6591 64.608 26.286 64.0398 25.7784C63.4716 25.2708 63.1894 24.5871 63.1932 23.7273C63.1894 23.0227 63.3769 22.4072 63.7557 21.8807C64.1383 21.3542 64.6629 20.9432 65.3295 20.6477C65.9962 20.3523 66.7538 20.2045 67.6023 20.2045C68.4659 20.2045 69.2197 20.3523 69.8636 20.6477C70.5114 20.9432 71.0152 21.3542 71.375 21.8807C71.7348 22.4072 71.9205 23.017 71.9318 23.7102H69.5739ZM73.3026 22.392V20.3636H82.8594V22.392H79.2969V32H76.8651V22.392H73.3026ZM86.8935 20.3636V32H84.4332V20.3636H86.8935ZM88.4744 22.392V20.3636H98.0312V22.392H94.4688V32H92.0369V22.392H88.4744ZM106.793 20.3636H109.253V27.9205C109.253 28.7689 109.05 29.5114 108.645 30.1477C108.243 30.7841 107.681 31.2803 106.957 31.6364C106.234 31.9886 105.391 32.1648 104.429 32.1648C103.463 32.1648 102.618 31.9886 101.895 31.6364C101.171 31.2803 100.609 30.7841 100.207 30.1477C99.8059 29.5114 99.6051 28.7689 99.6051 27.9205V20.3636H102.065V27.7102C102.065 28.1534 102.162 28.5473 102.355 28.892C102.552 29.2367 102.829 29.5076 103.185 29.7045C103.541 29.9015 103.955 30 104.429 30C104.906 30 105.321 29.9015 105.673 29.7045C106.029 29.5076 106.304 29.2367 106.497 28.892C106.694 28.5473 106.793 28.1534 106.793 27.7102V20.3636ZM110.834 22.392V20.3636H120.391V22.392H116.828V32H114.396V22.392H110.834ZM132.126 26.1818C132.126 27.4508 131.886 28.5303 131.405 29.4205C130.928 30.3106 130.276 30.9905 129.45 31.4602C128.628 31.9261 127.704 32.1591 126.678 32.1591C125.643 32.1591 124.715 31.9242 123.893 31.4545C123.071 30.9848 122.422 30.3049 121.945 29.4148C121.467 28.5246 121.229 27.447 121.229 26.1818C121.229 24.9129 121.467 23.8333 121.945 22.9432C122.422 22.053 123.071 21.375 123.893 20.9091C124.715 20.4394 125.643 20.2045 126.678 20.2045C127.704 20.2045 128.628 20.4394 129.45 20.9091C130.276 21.375 130.928 22.053 131.405 22.9432C131.886 23.8333 132.126 24.9129 132.126 26.1818ZM129.632 26.1818C129.632 25.3598 129.509 24.6667 129.263 24.1023C129.02 23.5379 128.678 23.1098 128.234 22.8182C127.791 22.5265 127.272 22.3807 126.678 22.3807C126.083 22.3807 125.564 22.5265 125.121 22.8182C124.678 23.1098 124.333 23.5379 124.087 24.1023C123.844 24.6667 123.723 25.3598 123.723 26.1818C123.723 27.0038 123.844 27.697 124.087 28.2614C124.333 28.8258 124.678 29.2538 125.121 29.5455C125.564 29.8371 126.083 29.983 126.678 29.983C127.272 29.983 127.791 29.8371 128.234 29.5455C128.678 29.2538 129.02 28.8258 129.263 28.2614C129.509 27.697 129.632 27.0038 129.632 26.1818ZM137.652 32V20.3636H145.357V22.392H140.112V25.1648H144.845V27.1932H140.112V32H137.652ZM147.011 32V20.3636H154.852V22.392H149.472V25.1648H154.449V27.1932H149.472V29.9716H154.875V32H147.011ZM160.933 32H156.808V20.3636H160.967C162.138 20.3636 163.145 20.5966 163.99 21.0625C164.835 21.5246 165.484 22.1894 165.939 23.0568C166.397 23.9242 166.626 24.9621 166.626 26.1705C166.626 27.3826 166.397 28.4242 165.939 29.2955C165.484 30.1667 164.831 30.8352 163.979 31.3011C163.13 31.767 162.115 32 160.933 32ZM159.268 29.892H160.831C161.558 29.892 162.17 29.7633 162.666 29.5057C163.166 29.2443 163.541 28.8409 163.791 28.2955C164.045 27.7462 164.172 27.0379 164.172 26.1705C164.172 25.3106 164.045 24.608 163.791 24.0625C163.541 23.517 163.168 23.1155 162.672 22.858C162.176 22.6004 161.564 22.4716 160.837 22.4716H159.268V29.892ZM168.449 32V20.3636H176.29V22.392H170.909V25.1648H175.886V27.1932H170.909V29.9716H176.312V32H168.449ZM178.246 32V20.3636H182.837C183.715 20.3636 184.465 20.5208 185.087 20.8352C185.712 21.1458 186.187 21.5871 186.513 22.1591C186.842 22.7273 187.007 23.3958 187.007 24.1648C187.007 24.9375 186.84 25.6023 186.507 26.1591C186.174 26.7121 185.691 27.1364 185.058 27.4318C184.429 27.7273 183.668 27.875 182.774 27.875H179.7V25.8977H182.376C182.846 25.8977 183.236 25.8333 183.547 25.7045C183.857 25.5758 184.089 25.3826 184.24 25.125C184.395 24.8674 184.473 24.5473 184.473 24.1648C184.473 23.7784 184.395 23.4527 184.24 23.1875C184.089 22.9223 183.856 22.7216 183.541 22.5852C183.231 22.4451 182.839 22.375 182.365 22.375H180.706V32H178.246ZM184.53 26.7045L187.422 32H184.706L181.876 26.7045H184.53ZM190.751 32H188.115L192.132 20.3636H195.303L199.314 32H196.678L193.763 23.0227H193.672L190.751 32ZM190.587 27.4261H196.814V29.3466H190.587V27.4261ZM200.714 32V20.3636H203.175V29.9716H208.163V32H200.714Z" fill="black"/>
<path d="M47.4091 47V35.3636H51.3409C52.2538 35.3636 53 35.5284 53.5795 35.858C54.1629 36.1837 54.5947 36.625 54.875 37.1818C55.1553 37.7386 55.2955 38.3598 55.2955 39.0455C55.2955 39.7311 55.1553 40.3542 54.875 40.9148C54.5985 41.4754 54.1705 41.9223 53.5909 42.2557C53.0114 42.5852 52.2689 42.75 51.3636 42.75H48.5455V41.5H51.3182C51.9432 41.5 52.4451 41.392 52.8239 41.1761C53.2027 40.9602 53.4773 40.6686 53.6477 40.3011C53.822 39.9299 53.9091 39.5114 53.9091 39.0455C53.9091 38.5795 53.822 38.1629 53.6477 37.7955C53.4773 37.428 53.2008 37.1402 52.8182 36.9318C52.4356 36.7197 51.928 36.6136 51.2955 36.6136H48.8182V47H47.4091ZM59.9517 47.2045C59.3987 47.2045 58.8968 47.1004 58.446 46.892C57.9953 46.6799 57.6373 46.375 57.3722 45.9773C57.107 45.5758 56.9744 45.0909 56.9744 44.5227C56.9744 44.0227 57.0729 43.6174 57.2699 43.3068C57.4669 42.9924 57.7301 42.7462 58.0597 42.5682C58.3892 42.3902 58.7528 42.2576 59.1506 42.1705C59.5521 42.0795 59.9555 42.0076 60.3608 41.9545C60.8911 41.8864 61.321 41.8352 61.6506 41.8011C61.9839 41.7633 62.2263 41.7008 62.3778 41.6136C62.5331 41.5265 62.6108 41.375 62.6108 41.1591V41.1136C62.6108 40.553 62.4574 40.1174 62.1506 39.8068C61.8475 39.4962 61.3873 39.3409 60.7699 39.3409C60.1297 39.3409 59.6278 39.4811 59.2642 39.7614C58.9006 40.0417 58.6449 40.3409 58.4972 40.6591L57.2244 40.2045C57.4517 39.6742 57.7547 39.2614 58.1335 38.9659C58.5161 38.6667 58.9328 38.4583 59.3835 38.3409C59.8381 38.2197 60.285 38.1591 60.7244 38.1591C61.0047 38.1591 61.3267 38.1932 61.6903 38.2614C62.0578 38.3258 62.4119 38.4602 62.7528 38.6648C63.0975 38.8693 63.3835 39.178 63.6108 39.5909C63.8381 40.0038 63.9517 40.5568 63.9517 41.25V47H62.6108V45.8182H62.5426C62.4517 46.0076 62.3002 46.2102 62.0881 46.4261C61.8759 46.642 61.5938 46.8258 61.2415 46.9773C60.8892 47.1288 60.4593 47.2045 59.9517 47.2045ZM60.1562 46C60.6866 46 61.1335 45.8958 61.4972 45.6875C61.8646 45.4792 62.1411 45.2102 62.3267 44.8807C62.5161 44.5511 62.6108 44.2045 62.6108 43.8409V42.6136C62.554 42.6818 62.429 42.7443 62.2358 42.8011C62.0464 42.8542 61.8267 42.9015 61.5767 42.9432C61.3305 42.9811 61.09 43.0152 60.8551 43.0455C60.6241 43.072 60.4366 43.0947 60.2926 43.1136C59.9441 43.1591 59.6184 43.233 59.3153 43.3352C59.0161 43.4337 58.7737 43.5833 58.5881 43.7841C58.4063 43.9811 58.3153 44.25 58.3153 44.5909C58.3153 45.0568 58.4877 45.4091 58.8324 45.6477C59.1809 45.8826 59.6222 46 60.1562 46ZM66.3991 47V38.2727H67.6946V39.5909H67.7855C67.9446 39.1591 68.2325 38.8087 68.6491 38.5398C69.0658 38.2708 69.5355 38.1364 70.0582 38.1364C70.1567 38.1364 70.2798 38.1383 70.4276 38.142C70.5753 38.1458 70.687 38.1515 70.7628 38.1591V39.5227C70.7173 39.5114 70.6132 39.4943 70.4503 39.4716C70.2912 39.4451 70.1226 39.4318 69.9446 39.4318C69.5204 39.4318 69.1416 39.5208 68.8082 39.6989C68.4787 39.8731 68.2173 40.1155 68.0241 40.4261C67.8348 40.733 67.7401 41.0833 67.7401 41.4773V47H66.3991ZM74.9205 47.2045C74.3674 47.2045 73.8655 47.1004 73.4148 46.892C72.964 46.6799 72.6061 46.375 72.3409 45.9773C72.0758 45.5758 71.9432 45.0909 71.9432 44.5227C71.9432 44.0227 72.0417 43.6174 72.2386 43.3068C72.4356 42.9924 72.6989 42.7462 73.0284 42.5682C73.358 42.3902 73.7216 42.2576 74.1193 42.1705C74.5208 42.0795 74.9242 42.0076 75.3295 41.9545C75.8598 41.8864 76.2898 41.8352 76.6193 41.8011C76.9527 41.7633 77.1951 41.7008 77.3466 41.6136C77.5019 41.5265 77.5795 41.375 77.5795 41.1591V41.1136C77.5795 40.553 77.4261 40.1174 77.1193 39.8068C76.8163 39.4962 76.3561 39.3409 75.7386 39.3409C75.0985 39.3409 74.5966 39.4811 74.233 39.7614C73.8693 40.0417 73.6136 40.3409 73.4659 40.6591L72.1932 40.2045C72.4205 39.6742 72.7235 39.2614 73.1023 38.9659C73.4848 38.6667 73.9015 38.4583 74.3523 38.3409C74.8068 38.2197 75.2538 38.1591 75.6932 38.1591C75.9735 38.1591 76.2955 38.1932 76.6591 38.2614C77.0265 38.3258 77.3807 38.4602 77.7216 38.6648C78.0663 38.8693 78.3523 39.178 78.5795 39.5909C78.8068 40.0038 78.9205 40.5568 78.9205 41.25V47H77.5795V45.8182H77.5114C77.4205 46.0076 77.2689 46.2102 77.0568 46.4261C76.8447 46.642 76.5625 46.8258 76.2102 46.9773C75.858 47.1288 75.428 47.2045 74.9205 47.2045ZM75.125 46C75.6553 46 76.1023 45.8958 76.4659 45.6875C76.8333 45.4792 77.1098 45.2102 77.2955 44.8807C77.4848 44.5511 77.5795 44.2045 77.5795 43.8409V42.6136C77.5227 42.6818 77.3977 42.7443 77.2045 42.8011C77.0152 42.8542 76.7955 42.9015 76.5455 42.9432C76.2992 42.9811 76.0587 43.0152 75.8239 43.0455C75.5928 43.072 75.4053 43.0947 75.2614 43.1136C74.9129 43.1591 74.5871 43.233 74.2841 43.3352C73.9848 43.4337 73.7424 43.5833 73.5568 43.7841C73.375 43.9811 73.2841 44.25 73.2841 44.5909C73.2841 45.0568 73.4564 45.4091 73.8011 45.6477C74.1496 45.8826 74.5909 46 75.125 46ZM82.7088 41.75V47H81.3679V38.2727H82.6634V39.6364H82.777C82.9815 39.1932 83.2921 38.8371 83.7088 38.5682C84.1255 38.2955 84.6634 38.1591 85.3224 38.1591C85.9134 38.1591 86.4304 38.2803 86.8736 38.5227C87.3168 38.7614 87.6615 39.125 87.9077 39.6136C88.1539 40.0985 88.277 40.7121 88.277 41.4545V47H86.9361V41.5455C86.9361 40.8598 86.758 40.3258 86.402 39.9432C86.0459 39.5568 85.5573 39.3636 84.9361 39.3636C84.508 39.3636 84.1255 39.4564 83.7884 39.642C83.455 39.8277 83.1918 40.0985 82.9986 40.4545C82.8054 40.8106 82.7088 41.2424 82.7088 41.75ZM93.2955 47.2045C92.7424 47.2045 92.2405 47.1004 91.7898 46.892C91.339 46.6799 90.9811 46.375 90.7159 45.9773C90.4508 45.5758 90.3182 45.0909 90.3182 44.5227C90.3182 44.0227 90.4167 43.6174 90.6136 43.3068C90.8106 42.9924 91.0739 42.7462 91.4034 42.5682C91.733 42.3902 92.0966 42.2576 92.4943 42.1705C92.8958 42.0795 93.2992 42.0076 93.7045 41.9545C94.2348 41.8864 94.6648 41.8352 94.9943 41.8011C95.3277 41.7633 95.5701 41.7008 95.7216 41.6136C95.8769 41.5265 95.9545 41.375 95.9545 41.1591V41.1136C95.9545 40.553 95.8011 40.1174 95.4943 39.8068C95.1913 39.4962 94.7311 39.3409 94.1136 39.3409C93.4735 39.3409 92.9716 39.4811 92.608 39.7614C92.2443 40.0417 91.9886 40.3409 91.8409 40.6591L90.5682 40.2045C90.7955 39.6742 91.0985 39.2614 91.4773 38.9659C91.8598 38.6667 92.2765 38.4583 92.7273 38.3409C93.1818 38.2197 93.6288 38.1591 94.0682 38.1591C94.3485 38.1591 94.6705 38.1932 95.0341 38.2614C95.4015 38.3258 95.7557 38.4602 96.0966 38.6648C96.4413 38.8693 96.7273 39.178 96.9545 39.5909C97.1818 40.0038 97.2955 40.5568 97.2955 41.25V47H95.9545V45.8182H95.8864C95.7955 46.0076 95.6439 46.2102 95.4318 46.4261C95.2197 46.642 94.9375 46.8258 94.5852 46.9773C94.233 47.1288 93.803 47.2045 93.2955 47.2045ZM93.5 46C94.0303 46 94.4773 45.8958 94.8409 45.6875C95.2083 45.4792 95.4848 45.2102 95.6705 44.8807C95.8598 44.5511 95.9545 44.2045 95.9545 43.8409V42.6136C95.8977 42.6818 95.7727 42.7443 95.5795 42.8011C95.3902 42.8542 95.1705 42.9015 94.9205 42.9432C94.6742 42.9811 94.4337 43.0152 94.1989 43.0455C93.9678 43.072 93.7803 43.0947 93.6364 43.1136C93.2879 43.1591 92.9621 43.233 92.6591 43.3352C92.3598 43.4337 92.1174 43.5833 91.9318 43.7841C91.75 43.9811 91.6591 44.25 91.6591 44.5909C91.6591 45.0568 91.8314 45.4091 92.1761 45.6477C92.5246 45.8826 92.9659 46 93.5 46ZM93.5455 37.0909L94.9318 34.4545H96.5L94.7273 37.0909H93.5455Z" fill="#298B15"/>
<path d="M55.7727 52H54.3636C54.2803 51.5947 54.1345 51.2386 53.9261 50.9318C53.7216 50.625 53.4716 50.3674 53.1761 50.1591C52.8845 49.947 52.5606 49.7879 52.2045 49.6818C51.8485 49.5758 51.4773 49.5227 51.0909 49.5227C50.3864 49.5227 49.7481 49.7008 49.1761 50.0568C48.608 50.4129 48.1553 50.9375 47.8182 51.6307C47.4848 52.3239 47.3182 53.1742 47.3182 54.1818C47.3182 55.1894 47.4848 56.0398 47.8182 56.733C48.1553 57.4261 48.608 57.9508 49.1761 58.3068C49.7481 58.6629 50.3864 58.8409 51.0909 58.8409C51.4773 58.8409 51.8485 58.7879 52.2045 58.6818C52.5606 58.5758 52.8845 58.4186 53.1761 58.2102C53.4716 57.9981 53.7216 57.7386 53.9261 57.4318C54.1345 57.1212 54.2803 56.7652 54.3636 56.3636H55.7727C55.6667 56.9583 55.4735 57.4905 55.1932 57.9602C54.9129 58.4299 54.5644 58.8295 54.1477 59.1591C53.7311 59.4848 53.2633 59.733 52.7443 59.9034C52.2292 60.0739 51.678 60.1591 51.0909 60.1591C50.0985 60.1591 49.2159 59.9167 48.4432 59.4318C47.6705 58.947 47.0625 58.2576 46.6193 57.3636C46.1761 56.4697 45.9545 55.4091 45.9545 54.1818C45.9545 52.9545 46.1761 51.8939 46.6193 51C47.0625 50.1061 47.6705 49.4167 48.4432 48.9318C49.2159 48.447 50.0985 48.2045 51.0909 48.2045C51.678 48.2045 52.2292 48.2898 52.7443 48.4602C53.2633 48.6307 53.7311 48.8807 54.1477 49.2102C54.5644 49.536 54.9129 49.9337 55.1932 50.4034C55.4735 50.8693 55.6667 51.4015 55.7727 52ZM60.4361 60.2045C59.883 60.2045 59.3812 60.1004 58.9304 59.892C58.4796 59.6799 58.1217 59.375 57.8565 58.9773C57.5914 58.5758 57.4588 58.0909 57.4588 57.5227C57.4588 57.0227 57.5573 56.6174 57.7543 56.3068C57.9512 55.9924 58.2145 55.7462 58.544 55.5682C58.8736 55.3902 59.2372 55.2576 59.6349 55.1705C60.0365 55.0795 60.4399 55.0076 60.8452 54.9545C61.3755 54.8864 61.8054 54.8352 62.1349 54.8011C62.4683 54.7633 62.7107 54.7008 62.8622 54.6136C63.0175 54.5265 63.0952 54.375 63.0952 54.1591V54.1136C63.0952 53.553 62.9418 53.1174 62.6349 52.8068C62.3319 52.4962 61.8717 52.3409 61.2543 52.3409C60.6141 52.3409 60.1122 52.4811 59.7486 52.7614C59.3849 53.0417 59.1293 53.3409 58.9815 53.6591L57.7088 53.2045C57.9361 52.6742 58.2391 52.2614 58.6179 51.9659C59.0005 51.6667 59.4171 51.4583 59.8679 51.3409C60.3224 51.2197 60.7694 51.1591 61.2088 51.1591C61.4891 51.1591 61.8111 51.1932 62.1747 51.2614C62.5421 51.3258 62.8963 51.4602 63.2372 51.6648C63.5819 51.8693 63.8679 52.178 64.0952 52.5909C64.3224 53.0038 64.4361 53.5568 64.4361 54.25V60H63.0952V58.8182H63.027C62.9361 59.0076 62.7846 59.2102 62.5724 59.4261C62.3603 59.642 62.0781 59.8258 61.7259 59.9773C61.3736 60.1288 60.9437 60.2045 60.4361 60.2045ZM60.6406 59C61.1709 59 61.6179 58.8958 61.9815 58.6875C62.349 58.4792 62.6255 58.2102 62.8111 57.8807C63.0005 57.5511 63.0952 57.2045 63.0952 56.8409V55.6136C63.0384 55.6818 62.9134 55.7443 62.7202 55.8011C62.5308 55.8542 62.3111 55.9015 62.0611 55.9432C61.8149 55.9811 61.5743 56.0152 61.3395 56.0455C61.1084 56.072 60.9209 56.0947 60.777 56.1136C60.4285 56.1591 60.1027 56.233 59.7997 56.3352C59.5005 56.4337 59.258 56.5833 59.0724 56.7841C58.8906 56.9811 58.7997 57.25 58.7997 57.5909C58.7997 58.0568 58.9721 58.4091 59.3168 58.6477C59.6652 58.8826 60.1065 59 60.6406 59ZM66.8835 60V51.2727H68.179V52.6364H68.2926C68.4744 52.1705 68.768 51.8087 69.1733 51.5511C69.5786 51.2898 70.0653 51.1591 70.6335 51.1591C71.2093 51.1591 71.6884 51.2898 72.071 51.5511C72.4574 51.8087 72.7585 52.1705 72.9744 52.6364H73.0653C73.2888 52.1856 73.6241 51.8277 74.071 51.5625C74.518 51.2936 75.054 51.1591 75.679 51.1591C76.4593 51.1591 77.0975 51.4034 77.5938 51.892C78.09 52.3769 78.3381 53.1326 78.3381 54.1591V60H76.9972V54.1591C76.9972 53.5152 76.821 53.0549 76.4688 52.7784C76.1165 52.5019 75.7017 52.3636 75.2244 52.3636C74.6108 52.3636 74.1354 52.5492 73.7983 52.9205C73.4612 53.2879 73.2926 53.7538 73.2926 54.3182V60H71.929V54.0227C71.929 53.5265 71.768 53.1269 71.446 52.8239C71.1241 52.517 70.7093 52.3636 70.2017 52.3636C69.8532 52.3636 69.5275 52.4564 69.2244 52.642C68.9252 52.8277 68.6828 53.0852 68.4972 53.4148C68.3153 53.7405 68.2244 54.1174 68.2244 54.5455V60H66.8835ZM80.7898 63.2727V51.2727H82.0852V52.6591H82.2443C82.3428 52.5076 82.4792 52.3144 82.6534 52.0795C82.8314 51.8409 83.0852 51.6288 83.4148 51.4432C83.7481 51.2538 84.1989 51.1591 84.767 51.1591C85.5019 51.1591 86.1496 51.3428 86.7102 51.7102C87.2708 52.0777 87.7083 52.5985 88.0227 53.2727C88.3371 53.947 88.4943 54.7424 88.4943 55.6591C88.4943 56.5833 88.3371 57.3845 88.0227 58.0625C87.7083 58.7367 87.2727 59.2595 86.7159 59.6307C86.1591 59.9981 85.517 60.1818 84.7898 60.1818C84.2292 60.1818 83.7803 60.089 83.4432 59.9034C83.1061 59.714 82.8466 59.5 82.6648 59.2614C82.483 59.0189 82.3428 58.8182 82.2443 58.6591H82.1307V63.2727H80.7898ZM82.108 55.6364C82.108 56.2955 82.2045 56.8769 82.3977 57.3807C82.5909 57.8807 82.8731 58.2727 83.2443 58.5568C83.6155 58.8371 84.0701 58.9773 84.608 58.9773C85.1686 58.9773 85.6364 58.8295 86.0114 58.5341C86.3902 58.2348 86.6742 57.8333 86.8636 57.3295C87.0568 56.822 87.1534 56.2576 87.1534 55.6364C87.1534 55.0227 87.0587 54.4697 86.8693 53.9773C86.6837 53.4811 86.4015 53.089 86.0227 52.8011C85.6477 52.5095 85.1761 52.3636 84.608 52.3636C84.0625 52.3636 83.6042 52.5019 83.233 52.7784C82.8617 53.0511 82.5814 53.4337 82.392 53.9261C82.2027 54.4148 82.108 54.9848 82.108 55.6364ZM96.0398 56.4318V51.2727H97.3807V60H96.0398V58.5227H95.9489C95.7443 58.9659 95.4261 59.3428 94.9943 59.6534C94.5625 59.9602 94.017 60.1136 93.358 60.1136C92.8125 60.1136 92.3277 59.9943 91.9034 59.7557C91.4792 59.5133 91.1458 59.1496 90.9034 58.6648C90.661 58.1761 90.5398 57.5606 90.5398 56.8182V51.2727H91.8807V56.7273C91.8807 57.3636 92.0587 57.8712 92.4148 58.25C92.7746 58.6288 93.233 58.8182 93.7898 58.8182C94.1231 58.8182 94.4621 58.733 94.8068 58.5625C95.1553 58.392 95.447 58.1307 95.6818 57.7784C95.9205 57.4261 96.0398 56.9773 96.0398 56.4318ZM106.018 53.2273L104.814 53.5682C104.738 53.3674 104.626 53.1723 104.479 52.983C104.335 52.7898 104.138 52.6307 103.888 52.5057C103.638 52.3807 103.318 52.3182 102.928 52.3182C102.393 52.3182 101.948 52.4413 101.592 52.6875C101.24 52.9299 101.064 53.2386 101.064 53.6136C101.064 53.947 101.185 54.2102 101.428 54.4034C101.67 54.5966 102.049 54.7576 102.564 54.8864L103.859 55.2045C104.64 55.3939 105.221 55.6837 105.604 56.0739C105.986 56.4602 106.178 56.9583 106.178 57.5682C106.178 58.0682 106.034 58.5152 105.746 58.9091C105.462 59.303 105.064 59.6136 104.553 59.8409C104.041 60.0682 103.446 60.1818 102.768 60.1818C101.878 60.1818 101.142 59.9886 100.558 59.6023C99.9749 59.2159 99.6056 58.6515 99.4503 57.9091L100.723 57.5909C100.844 58.0606 101.073 58.4129 101.411 58.6477C101.751 58.8826 102.196 59 102.746 59C103.371 59 103.867 58.8674 104.234 58.6023C104.606 58.3333 104.791 58.0114 104.791 57.6364C104.791 57.3333 104.685 57.0795 104.473 56.875C104.261 56.6667 103.935 56.5114 103.496 56.4091L102.041 56.0682C101.242 55.8788 100.655 55.5852 100.28 55.1875C99.9086 54.786 99.723 54.2841 99.723 53.6818C99.723 53.1894 99.8613 52.7538 100.138 52.375C100.418 51.9962 100.799 51.6989 101.28 51.483C101.765 51.267 102.314 51.1591 102.928 51.1591C103.791 51.1591 104.469 51.3485 104.962 51.7273C105.458 52.1061 105.81 52.6061 106.018 53.2273ZM112.878 60V48.3636H116.81C117.723 48.3636 118.469 48.5284 119.048 48.858C119.632 49.1837 120.063 49.625 120.344 50.1818C120.624 50.7386 120.764 51.3598 120.764 52.0455C120.764 52.7311 120.624 53.3542 120.344 53.9148C120.067 54.4754 119.639 54.9223 119.06 55.2557C118.48 55.5852 117.738 55.75 116.832 55.75H114.014V54.5H116.787C117.412 54.5 117.914 54.392 118.293 54.1761C118.671 53.9602 118.946 53.6686 119.116 53.3011C119.291 52.9299 119.378 52.5114 119.378 52.0455C119.378 51.5795 119.291 51.1629 119.116 50.7955C118.946 50.428 118.67 50.1402 118.287 49.9318C117.904 49.7197 117.397 49.6136 116.764 49.6136H114.287V60H112.878ZM125.42 60.2045C124.867 60.2045 124.366 60.1004 123.915 59.892C123.464 59.6799 123.106 59.375 122.841 58.9773C122.576 58.5758 122.443 58.0909 122.443 57.5227C122.443 57.0227 122.542 56.6174 122.739 56.3068C122.936 55.9924 123.199 55.7462 123.528 55.5682C123.858 55.3902 124.222 55.2576 124.619 55.1705C125.021 55.0795 125.424 55.0076 125.83 54.9545C126.36 54.8864 126.79 54.8352 127.119 54.8011C127.453 54.7633 127.695 54.7008 127.847 54.6136C128.002 54.5265 128.08 54.375 128.08 54.1591V54.1136C128.08 53.553 127.926 53.1174 127.619 52.8068C127.316 52.4962 126.856 52.3409 126.239 52.3409C125.598 52.3409 125.097 52.4811 124.733 52.7614C124.369 53.0417 124.114 53.3409 123.966 53.6591L122.693 53.2045C122.92 52.6742 123.223 52.2614 123.602 51.9659C123.985 51.6667 124.402 51.4583 124.852 51.3409C125.307 51.2197 125.754 51.1591 126.193 51.1591C126.473 51.1591 126.795 51.1932 127.159 51.2614C127.527 51.3258 127.881 51.4602 128.222 51.6648C128.566 51.8693 128.852 52.178 129.08 52.5909C129.307 53.0038 129.42 53.5568 129.42 54.25V60H128.08V58.8182H128.011C127.92 59.0076 127.769 59.2102 127.557 59.4261C127.345 59.642 127.063 59.8258 126.71 59.9773C126.358 60.1288 125.928 60.2045 125.42 60.2045ZM125.625 59C126.155 59 126.602 58.8958 126.966 58.6875C127.333 58.4792 127.61 58.2102 127.795 57.8807C127.985 57.5511 128.08 57.2045 128.08 56.8409V55.6136C128.023 55.6818 127.898 55.7443 127.705 55.8011C127.515 55.8542 127.295 55.9015 127.045 55.9432C126.799 55.9811 126.559 56.0152 126.324 56.0455C126.093 56.072 125.905 56.0947 125.761 56.1136C125.413 56.1591 125.087 56.233 124.784 56.3352C124.485 56.4337 124.242 56.5833 124.057 56.7841C123.875 56.9811 123.784 57.25 123.784 57.5909C123.784 58.0568 123.956 58.4091 124.301 58.6477C124.65 58.8826 125.091 59 125.625 59ZM131.868 60V51.2727H133.163V52.5909H133.254C133.413 52.1591 133.701 51.8087 134.118 51.5398C134.535 51.2708 135.004 51.1364 135.527 51.1364C135.625 51.1364 135.749 51.1383 135.896 51.142C136.044 51.1458 136.156 51.1515 136.232 51.1591V52.5227C136.186 52.5114 136.082 52.4943 135.919 52.4716C135.76 52.4451 135.591 52.4318 135.413 52.4318C134.989 52.4318 134.61 52.5208 134.277 52.6989C133.947 52.8731 133.686 53.1155 133.493 53.4261C133.304 53.733 133.209 54.0833 133.209 54.4773V60H131.868ZM140.389 60.2045C139.836 60.2045 139.334 60.1004 138.884 59.892C138.433 59.6799 138.075 59.375 137.81 58.9773C137.545 58.5758 137.412 58.0909 137.412 57.5227C137.412 57.0227 137.51 56.6174 137.707 56.3068C137.904 55.9924 138.168 55.7462 138.497 55.5682C138.827 55.3902 139.19 55.2576 139.588 55.1705C139.99 55.0795 140.393 55.0076 140.798 54.9545C141.329 54.8864 141.759 54.8352 142.088 54.8011C142.421 54.7633 142.664 54.7008 142.815 54.6136C142.971 54.5265 143.048 54.375 143.048 54.1591V54.1136C143.048 53.553 142.895 53.1174 142.588 52.8068C142.285 52.4962 141.825 52.3409 141.207 52.3409C140.567 52.3409 140.065 52.4811 139.702 52.7614C139.338 53.0417 139.082 53.3409 138.935 53.6591L137.662 53.2045C137.889 52.6742 138.192 52.2614 138.571 51.9659C138.954 51.6667 139.37 51.4583 139.821 51.3409C140.276 51.2197 140.723 51.1591 141.162 51.1591C141.442 51.1591 141.764 51.1932 142.128 51.2614C142.495 51.3258 142.849 51.4602 143.19 51.6648C143.535 51.8693 143.821 52.178 144.048 52.5909C144.276 53.0038 144.389 53.5568 144.389 54.25V60H143.048V58.8182H142.98C142.889 59.0076 142.738 59.2102 142.526 59.4261C142.313 59.642 142.031 59.8258 141.679 59.9773C141.327 60.1288 140.897 60.2045 140.389 60.2045ZM140.594 59C141.124 59 141.571 58.8958 141.935 58.6875C142.302 58.4792 142.579 58.2102 142.764 57.8807C142.954 57.5511 143.048 57.2045 143.048 56.8409V55.6136C142.991 55.6818 142.866 55.7443 142.673 55.8011C142.484 55.8542 142.264 55.9015 142.014 55.9432C141.768 55.9811 141.527 56.0152 141.293 56.0455C141.062 56.072 140.874 56.0947 140.73 56.1136C140.382 56.1591 140.056 56.233 139.753 56.3352C139.454 56.4337 139.211 56.5833 139.026 56.7841C138.844 56.9811 138.753 57.25 138.753 57.5909C138.753 58.0568 138.925 58.4091 139.27 58.6477C139.618 58.8826 140.06 59 140.594 59ZM148.178 54.75V60H146.837V51.2727H148.132V52.6364H148.246C148.45 52.1932 148.761 51.8371 149.178 51.5682C149.594 51.2955 150.132 51.1591 150.791 51.1591C151.382 51.1591 151.899 51.2803 152.342 51.5227C152.786 51.7614 153.13 52.125 153.376 52.6136C153.623 53.0985 153.746 53.7121 153.746 54.4545V60H152.405V54.5455C152.405 53.8598 152.227 53.3258 151.871 52.9432C151.515 52.5568 151.026 52.3636 150.405 52.3636C149.977 52.3636 149.594 52.4564 149.257 52.642C148.924 52.8277 148.661 53.0985 148.467 53.4545C148.274 53.8106 148.178 54.2424 148.178 54.75ZM158.764 60.2045C158.211 60.2045 157.709 60.1004 157.259 59.892C156.808 59.6799 156.45 59.375 156.185 58.9773C155.92 58.5758 155.787 58.0909 155.787 57.5227C155.787 57.0227 155.885 56.6174 156.082 56.3068C156.279 55.9924 156.543 55.7462 156.872 55.5682C157.202 55.3902 157.565 55.2576 157.963 55.1705C158.365 55.0795 158.768 55.0076 159.173 54.9545C159.704 54.8864 160.134 54.8352 160.463 54.8011C160.796 54.7633 161.039 54.7008 161.19 54.6136C161.346 54.5265 161.423 54.375 161.423 54.1591V54.1136C161.423 53.553 161.27 53.1174 160.963 52.8068C160.66 52.4962 160.2 52.3409 159.582 52.3409C158.942 52.3409 158.44 52.4811 158.077 52.7614C157.713 53.0417 157.457 53.3409 157.31 53.6591L156.037 53.2045C156.264 52.6742 156.567 52.2614 156.946 51.9659C157.329 51.6667 157.745 51.4583 158.196 51.3409C158.651 51.2197 159.098 51.1591 159.537 51.1591C159.817 51.1591 160.139 51.1932 160.503 51.2614C160.87 51.3258 161.224 51.4602 161.565 51.6648C161.91 51.8693 162.196 52.178 162.423 52.5909C162.651 53.0038 162.764 53.5568 162.764 54.25V60H161.423V58.8182H161.355C161.264 59.0076 161.113 59.2102 160.901 59.4261C160.688 59.642 160.406 59.8258 160.054 59.9773C159.702 60.1288 159.272 60.2045 158.764 60.2045ZM158.969 59C159.499 59 159.946 58.8958 160.31 58.6875C160.677 58.4792 160.954 58.2102 161.139 57.8807C161.329 57.5511 161.423 57.2045 161.423 56.8409V55.6136C161.366 55.6818 161.241 55.7443 161.048 55.8011C160.859 55.8542 160.639 55.9015 160.389 55.9432C160.143 55.9811 159.902 56.0152 159.668 56.0455C159.437 56.072 159.249 56.0947 159.105 56.1136C158.757 56.1591 158.431 56.233 158.128 56.3352C157.829 56.4337 157.586 56.5833 157.401 56.7841C157.219 56.9811 157.128 57.25 157.128 57.5909C157.128 58.0568 157.3 58.4091 157.645 58.6477C157.993 58.8826 158.435 59 158.969 59ZM168.734 63.4545C168.087 63.4545 167.53 63.3712 167.064 63.2045C166.598 63.0417 166.21 62.8258 165.899 62.5568C165.592 62.2917 165.348 62.0076 165.166 61.7045L166.234 60.9545C166.356 61.1136 166.509 61.2955 166.695 61.5C166.88 61.7083 167.134 61.8883 167.456 62.0398C167.782 62.1951 168.208 62.2727 168.734 62.2727C169.439 62.2727 170.02 62.1023 170.479 61.7614C170.937 61.4205 171.166 60.8864 171.166 60.1591V58.3864H171.053C170.954 58.5455 170.814 58.7424 170.632 58.9773C170.454 59.2083 170.196 59.4148 169.859 59.5966C169.526 59.7746 169.075 59.8636 168.507 59.8636C167.803 59.8636 167.17 59.697 166.609 59.3636C166.053 59.0303 165.611 58.5455 165.286 57.9091C164.964 57.2727 164.803 56.5 164.803 55.5909C164.803 54.697 164.96 53.9186 165.274 53.2557C165.589 52.589 166.026 52.0739 166.587 51.7102C167.147 51.3428 167.795 51.1591 168.53 51.1591C169.098 51.1591 169.549 51.2538 169.882 51.4432C170.219 51.6288 170.477 51.8409 170.655 52.0795C170.837 52.3144 170.977 52.5076 171.075 52.6591H171.212V51.2727H172.507V60.25C172.507 61 172.337 61.6098 171.996 62.0795C171.659 62.553 171.204 62.8996 170.632 63.1193C170.064 63.3428 169.431 63.4545 168.734 63.4545ZM168.689 58.6591C169.227 58.6591 169.681 58.536 170.053 58.2898C170.424 58.0436 170.706 57.6894 170.899 57.2273C171.092 56.7652 171.189 56.2121 171.189 55.5682C171.189 54.9394 171.094 54.3845 170.905 53.9034C170.715 53.4223 170.435 53.0455 170.064 52.7727C169.693 52.5 169.234 52.3636 168.689 52.3636C168.121 52.3636 167.647 52.5076 167.268 52.7955C166.893 53.0833 166.611 53.4697 166.422 53.9545C166.236 54.4394 166.143 54.9773 166.143 55.5682C166.143 56.1742 166.238 56.7102 166.428 57.1761C166.621 57.6383 166.905 58.0019 167.28 58.267C167.659 58.5284 168.128 58.6591 168.689 58.6591ZM180.462 56.4318V51.2727H181.803V60H180.462V58.5227H180.371C180.166 58.9659 179.848 59.3428 179.416 59.6534C178.984 59.9602 178.439 60.1136 177.78 60.1136C177.234 60.1136 176.75 59.9943 176.325 59.7557C175.901 59.5133 175.568 59.1496 175.325 58.6648C175.083 58.1761 174.962 57.5606 174.962 56.8182V51.2727H176.303V56.7273C176.303 57.3636 176.481 57.8712 176.837 58.25C177.196 58.6288 177.655 58.8182 178.212 58.8182C178.545 58.8182 178.884 58.733 179.229 58.5625C179.577 58.392 179.869 58.1307 180.104 57.7784C180.342 57.4261 180.462 56.9773 180.462 56.4318ZM186.827 60.2045C186.274 60.2045 185.772 60.1004 185.321 59.892C184.87 59.6799 184.512 59.375 184.247 58.9773C183.982 58.5758 183.849 58.0909 183.849 57.5227C183.849 57.0227 183.948 56.6174 184.145 56.3068C184.342 55.9924 184.605 55.7462 184.935 55.5682C185.264 55.3902 185.628 55.2576 186.026 55.1705C186.427 55.0795 186.83 55.0076 187.236 54.9545C187.766 54.8864 188.196 54.8352 188.526 54.8011C188.859 54.7633 189.101 54.7008 189.253 54.6136C189.408 54.5265 189.486 54.375 189.486 54.1591V54.1136C189.486 53.553 189.332 53.1174 189.026 52.8068C188.723 52.4962 188.262 52.3409 187.645 52.3409C187.005 52.3409 186.503 52.4811 186.139 52.7614C185.776 53.0417 185.52 53.3409 185.372 53.6591L184.099 53.2045C184.327 52.6742 184.63 52.2614 185.009 51.9659C185.391 51.6667 185.808 51.4583 186.259 51.3409C186.713 51.2197 187.16 51.1591 187.599 51.1591C187.88 51.1591 188.202 51.1932 188.565 51.2614C188.933 51.3258 189.287 51.4602 189.628 51.6648C189.973 51.8693 190.259 52.178 190.486 52.5909C190.713 53.0038 190.827 53.5568 190.827 54.25V60H189.486V58.8182H189.418C189.327 59.0076 189.175 59.2102 188.963 59.4261C188.751 59.642 188.469 59.8258 188.116 59.9773C187.764 60.1288 187.334 60.2045 186.827 60.2045ZM187.031 59C187.562 59 188.009 58.8958 188.372 58.6875C188.74 58.4792 189.016 58.2102 189.202 57.8807C189.391 57.5511 189.486 57.2045 189.486 56.8409V55.6136C189.429 55.6818 189.304 55.7443 189.111 55.8011C188.921 55.8542 188.702 55.9015 188.452 55.9432C188.205 55.9811 187.965 56.0152 187.73 56.0455C187.499 56.072 187.312 56.0947 187.168 56.1136C186.819 56.1591 186.493 56.233 186.19 56.3352C185.891 56.4337 185.649 56.5833 185.463 56.7841C185.281 56.9811 185.19 57.25 185.19 57.5909C185.19 58.0568 185.363 58.4091 185.707 58.6477C186.056 58.8826 186.497 59 187.031 59ZM187.077 50.0909L188.463 47.4545H190.031L188.259 50.0909H187.077Z" fill="#298B15"/>
</svg>
