<svg width="268" height="64" viewBox="0 0 268 64" fill="none" xmlns="http://www.w3.org/2000/svg">
<path d="M42.6519 43.1408C42.6519 43.8519 42.0817 44.4445 41.5115 44.4445H31.5898C30.9055 44.4445 30.3353 43.8519 30.3353 43.1408V32.8296C30.3353 32.1185 30.9055 31.5259 31.5898 31.5259H41.5115C42.1958 31.5259 42.766 32.1185 42.766 32.8296V43.1408H42.6519Z" fill="#4DDE30"/>
<path d="M27.8264 12.2074C27.8264 12.9185 27.2562 13.5111 26.5719 13.5111H16.6502C15.966 13.5111 15.3958 12.9185 15.3958 12.2074V1.89629C15.3958 1.18518 15.966 0.59259 16.6502 0.59259H26.5719C27.2562 0.59259 27.8264 1.18518 27.8264 1.89629V12.2074Z" fill="#4DDE30"/>
<path d="M42.6519 12.2074C42.6519 12.9185 42.0817 13.5111 41.5115 13.5111H31.5898C30.9055 13.5111 30.3353 12.9185 30.3353 12.2074V1.89629C30.3353 1.18518 30.9055 0.59259 31.5898 0.59259H41.5115C42.1958 0.59259 42.766 1.18518 42.766 1.89629V12.2074H42.6519Z" fill="#4DDE30"/>
<path d="M13.0009 27.6148C13.0009 28.3259 12.4306 28.9185 11.7464 28.9185H1.82469C1.14044 28.9185 0.684265 28.3259 0.684265 27.7333V17.4222C0.684265 16.7111 1.25448 16.1185 1.93873 16.1185H11.8604C12.5447 16.1185 13.1149 16.7111 13.1149 17.4222V27.6148H13.0009Z" fill="#4DDE30"/>
<path d="M27.8264 27.6148C27.8264 28.3259 27.2562 28.9185 26.5719 28.9185H16.6502C15.966 28.9185 15.3958 28.3259 15.3958 27.7333V17.4222C15.3958 16.7111 15.966 16.1185 16.6502 16.1185H26.5719C27.2562 16.1185 27.8264 16.7111 27.8264 17.4222V27.6148Z" fill="#4DDE30"/>
<path d="M13.0009 43.1408C13.0009 43.8519 12.4306 44.4445 11.7464 44.4445H1.82469C1.14044 44.4445 0.684265 43.8519 0.684265 43.1408V32.8296C0.684265 32.1185 1.25448 31.5259 1.93873 31.5259H11.8604C12.5447 31.5259 13.1149 32.1185 13.1149 32.8296V43.1408H13.0009Z" fill="#4DDE30"/>
<path d="M27.8264 43.1408C27.8264 43.8519 27.2562 44.4445 26.5719 44.4445H16.6502C15.966 44.4445 15.3958 43.8519 15.3958 43.1408V32.8296C15.3958 32.1185 15.966 31.5259 16.6502 31.5259H26.5719C27.2562 31.5259 27.8264 32.1185 27.8264 32.8296V43.1408Z" fill="#4DDE30"/>
<path d="M13.0009 58.5481C13.0009 59.2593 12.4306 59.8518 11.7464 59.8518H1.82469C1.14044 59.8518 0.684265 59.2593 0.684265 58.5481V48.237C0.684265 47.5259 1.25448 47.0518 1.93873 47.0518H11.8604C12.5447 47.0518 13.1149 47.6444 13.1149 48.3556V58.5481H13.0009Z" fill="#4DDE30"/>
<path d="M27.8264 58.5481C27.8264 59.2593 27.2562 59.8518 26.5719 59.8518H16.6502C15.966 59.8518 15.3958 59.2593 15.3958 58.5481V48.237C15.3958 47.5259 15.966 47.0518 16.6502 47.0518H26.5719C27.2562 47.0518 27.8264 47.6444 27.8264 48.3556V58.5481Z" fill="#4DDE30"/>
<path d="M13.5711 7.11111C13.5711 11.0222 10.4919 14.2222 6.72851 14.2222C3.07915 14.1037 0 11.0222 0 7.11111C0 3.2 3.07915 0 6.84255 0C10.606 0 13.5711 3.2 13.5711 7.11111Z" fill="#FF0000"/>
<path d="M51.9011 17.675V26.4097H50.8434V17.675H51.9011ZM60.9482 17.675V26.4097H59.9246L55.1649 19.5516H55.0796V26.4097H54.0218V17.675H55.0454L59.8222 24.5502H59.9075V17.675H60.9482ZM67.8415 19.8587C67.7903 19.4265 67.5827 19.091 67.2188 18.8522C66.8548 18.6133 66.4084 18.4939 65.8796 18.4939C65.4929 18.4939 65.1545 18.5565 64.8645 18.6816C64.5773 18.8067 64.3527 18.9787 64.1906 19.1976C64.0314 19.4166 63.9518 19.6654 63.9518 19.944C63.9518 20.1772 64.0072 20.3776 64.1181 20.5454C64.2319 20.7103 64.3769 20.8482 64.5532 20.9591C64.7294 21.0671 64.9143 21.1567 65.1076 21.2278C65.3009 21.296 65.4787 21.3515 65.6407 21.3941L66.5278 21.6329C66.7553 21.6927 67.0084 21.7751 67.287 21.8803C67.5685 21.9855 67.8372 22.1291 68.0931 22.3111C68.3518 22.4902 68.5651 22.7205 68.7328 23.002C68.9006 23.2835 68.9845 23.629 68.9845 24.0384C68.9845 24.5104 68.8608 24.9369 68.6134 25.3179C68.3689 25.6989 68.0106 26.0017 67.5386 26.2263C67.0695 26.451 66.4994 26.5633 65.8284 26.5633C65.2029 26.5633 64.6612 26.4623 64.2034 26.2605C63.7485 26.0586 63.3902 25.7771 63.1286 25.416C62.8699 25.0549 62.7235 24.6355 62.6894 24.1578H63.7812C63.8096 24.4876 63.9205 24.7606 64.1139 24.9767C64.31 25.1899 64.5574 25.3492 64.856 25.4544C65.1574 25.5567 65.4815 25.6079 65.8284 25.6079C66.2321 25.6079 66.5947 25.5425 66.916 25.4117C67.2372 25.2781 67.4917 25.0933 67.6794 24.8573C67.867 24.6184 67.9609 24.3398 67.9609 24.0213C67.9609 23.7313 67.8798 23.4953 67.7178 23.3134C67.5557 23.1314 67.3425 22.9835 67.078 22.8698C66.8136 22.7561 66.5278 22.6565 66.2208 22.5712L65.146 22.2642C64.4636 22.068 63.9234 21.7879 63.5253 21.424C63.1272 21.06 62.9282 20.5838 62.9282 19.9952C62.9282 19.5061 63.0604 19.0796 63.3248 18.7157C63.5921 18.3489 63.9504 18.0646 64.3996 17.8627C64.8517 17.658 65.3564 17.5556 65.9137 17.5556C66.4767 17.5556 66.9771 17.6566 67.415 17.8584C67.8528 18.0575 68.1997 18.3304 68.4556 18.6773C68.7144 19.0242 68.8508 19.418 68.8651 19.8587H67.8415ZM70.2458 18.6133V17.675H76.7969V18.6133H74.0502V26.4097H72.9925V18.6133H70.2458ZM79.487 17.675V26.4097H78.4293V17.675H79.487ZM81.1301 18.6133V17.675H87.6811V18.6133H84.9344V26.4097H83.8767V18.6133H81.1301ZM95.0457 17.675H96.1034V23.4584C96.1034 24.0555 95.9626 24.5886 95.6811 25.0577C95.4025 25.524 95.0087 25.8922 94.4997 26.1624C93.9908 26.4296 93.3937 26.5633 92.7084 26.5633C92.0232 26.5633 91.4261 26.4296 90.9171 26.1624C90.4082 25.8922 90.013 25.524 89.7315 25.0577C89.4528 24.5886 89.3135 24.0555 89.3135 23.4584V17.675H90.3712V23.3731C90.3712 23.7996 90.4651 24.1791 90.6527 24.5118C90.8404 24.8416 91.1077 25.1018 91.4545 25.2923C91.8043 25.48 92.2222 25.5738 92.7084 25.5738C93.1947 25.5738 93.6126 25.48 93.9623 25.2923C94.3121 25.1018 94.5793 24.8416 94.7642 24.5118C94.9518 24.1791 95.0457 23.7996 95.0457 23.3731V17.675ZM97.7379 18.6133V17.675H104.289V18.6133H101.542V26.4097H100.485V18.6133H97.7379ZM112.928 22.0424C112.928 22.9636 112.761 23.7598 112.429 24.4308C112.096 25.1018 111.64 25.6193 111.06 25.9832C110.48 26.3472 109.817 26.5291 109.072 26.5291C108.327 26.5291 107.665 26.3472 107.085 25.9832C106.505 25.6193 106.048 25.1018 105.716 24.4308C105.383 23.7598 105.217 22.9636 105.217 22.0424C105.217 21.1211 105.383 20.325 105.716 19.654C106.048 18.983 106.505 18.4655 107.085 18.1015C107.665 17.7376 108.327 17.5556 109.072 17.5556C109.817 17.5556 110.48 17.7376 111.06 18.1015C111.64 18.4655 112.096 18.983 112.429 19.654C112.761 20.325 112.928 21.1211 112.928 22.0424ZM111.904 22.0424C111.904 21.2861 111.778 20.6477 111.524 20.1274C111.274 19.6071 110.934 19.2133 110.505 18.946C110.079 18.6787 109.601 18.5451 109.072 18.5451C108.543 18.5451 108.064 18.6787 107.635 18.946C107.208 19.2133 106.869 19.6071 106.615 20.1274C106.365 20.6477 106.24 21.2861 106.24 22.0424C106.24 22.7987 106.365 23.437 106.615 23.9574C106.869 24.4777 107.208 24.8715 107.635 25.1388C108.064 25.406 108.543 25.5397 109.072 25.5397C109.601 25.5397 110.079 25.406 110.505 25.1388C110.934 24.8715 111.274 24.4777 111.524 23.9574C111.778 23.437 111.904 22.7987 111.904 22.0424ZM118.084 26.4097V17.675H123.321V18.6133H119.142V21.5647H122.929V22.503H119.142V26.4097H118.084ZM125.133 26.4097V17.675H130.405V18.6133H126.191V21.5647H130.132V22.503H126.191V25.4714H130.473V26.4097H125.133ZM135.006 26.4097H132.311V17.675H135.126C135.973 17.675 136.698 17.8499 137.301 18.1996C137.904 18.5465 138.366 19.0455 138.687 19.6966C139.008 20.3449 139.169 21.1211 139.169 22.0253C139.169 22.9352 139.007 23.7185 138.683 24.3753C138.359 25.0293 137.887 25.5326 137.267 25.8851C136.647 26.2349 135.894 26.4097 135.006 26.4097ZM133.369 25.4714H134.938C135.66 25.4714 136.259 25.3321 136.734 25.0535C137.209 24.7748 137.563 24.3782 137.796 23.8635C138.029 23.3489 138.145 22.7362 138.145 22.0253C138.145 21.3202 138.03 20.7131 137.8 20.2042C137.57 19.6924 137.226 19.3 136.768 19.027C136.31 18.7512 135.74 18.6133 135.058 18.6133H133.369V25.4714ZM140.943 26.4097V17.675H146.215V18.6133H142.001V21.5647H145.942V22.503H142.001V25.4714H146.283V26.4097H140.943ZM148.121 26.4097V17.675H151.073C151.755 17.675 152.315 17.7916 152.753 18.0248C153.191 18.2551 153.515 18.5721 153.725 18.9759C153.936 19.3796 154.041 19.8388 154.041 20.3535C154.041 20.8681 153.936 21.3244 153.725 21.7225C153.515 22.1206 153.192 22.4333 152.757 22.6608C152.322 22.8854 151.766 22.9977 151.09 22.9977H148.701V22.0424H151.056C151.522 22.0424 151.897 21.9741 152.182 21.8377C152.469 21.7012 152.676 21.5078 152.804 21.2576C152.935 21.0046 153 20.7032 153 20.3535C153 20.0037 152.935 19.6981 152.804 19.4365C152.673 19.1749 152.464 18.973 152.177 18.8309C151.89 18.6858 151.51 18.6133 151.038 18.6133H149.179V26.4097H148.121ZM152.233 22.4859L154.382 26.4097H153.154L151.038 22.4859H152.233ZM156.162 26.4097H155.053L158.26 17.675H159.352L162.559 26.4097H161.45L158.84 19.0569H158.772L156.162 26.4097ZM156.571 22.9977H161.041V23.936H156.571V22.9977ZM163.92 26.4097V17.675H164.978V25.4714H169.038V26.4097H163.92Z" fill="white"/>
<path d="M51.1601 42.2517V33.5171H54.1115C54.7967 33.5171 55.3569 33.6407 55.7919 33.8881C56.2298 34.1326 56.5539 34.4639 56.7643 34.8818C56.9747 35.2998 57.0799 35.7661 57.0799 36.2808C57.0799 36.7954 56.9747 37.2631 56.7643 37.6839C56.5568 38.1048 56.2355 38.4403 55.8004 38.6905C55.3654 38.9378 54.8081 39.0615 54.1286 39.0615H52.0131V38.1232H54.0944C54.5636 38.1232 54.9403 38.0422 55.2247 37.8801C55.509 37.7181 55.7151 37.4991 55.8431 37.2233C55.9739 36.9447 56.0393 36.6305 56.0393 36.2808C56.0393 35.931 55.9739 35.6183 55.8431 35.3425C55.7151 35.0667 55.5076 34.8506 55.2204 34.6942C54.9332 34.535 54.5522 34.4553 54.0774 34.4553H52.2178V42.2517H51.1601ZM60.5751 42.4053C60.16 42.4053 59.7832 42.3271 59.4449 42.1707C59.1065 42.0115 58.8378 41.7826 58.6388 41.484C58.4397 41.1827 58.3402 40.8187 58.3402 40.3922C58.3402 40.0169 58.4142 39.7127 58.562 39.4795C58.7099 39.2435 58.9075 39.0587 59.1548 38.9251C59.4022 38.7914 59.6752 38.6919 59.9737 38.6265C60.2751 38.5583 60.5779 38.5042 60.8822 38.4644C61.2802 38.4133 61.6029 38.3749 61.8503 38.3493C62.1005 38.3208 62.2825 38.2739 62.3962 38.2085C62.5128 38.1431 62.5711 38.0294 62.5711 37.8673V37.8332C62.5711 37.4124 62.4559 37.0854 62.2256 36.8523C61.9982 36.6191 61.6527 36.5025 61.1892 36.5025C60.7087 36.5025 60.332 36.6077 60.059 36.8181C59.7861 37.0286 59.5941 37.2532 59.4832 37.492L58.5279 37.1508C58.6985 36.7528 58.926 36.4428 59.2103 36.2211C59.4975 35.9964 59.8102 35.84 60.1486 35.7519C60.4898 35.6609 60.8253 35.6154 61.1551 35.6154C61.3655 35.6154 61.6072 35.641 61.8802 35.6922C62.156 35.7405 62.4218 35.8415 62.6777 35.995C62.9365 36.1485 63.1511 36.3803 63.3217 36.6902C63.4923 37.0001 63.5776 37.4152 63.5776 37.9356V42.2517H62.5711V41.3646H62.5199C62.4517 41.5068 62.3379 41.6589 62.1787 41.821C62.0195 41.983 61.8077 42.1209 61.5432 42.2347C61.2788 42.3484 60.9561 42.4053 60.5751 42.4053ZM60.7286 41.5011C61.1267 41.5011 61.4622 41.4229 61.7352 41.2665C62.011 41.1101 62.2185 40.9083 62.3578 40.6609C62.5 40.4135 62.5711 40.1534 62.5711 39.8804V38.9592C62.5284 39.0104 62.4346 39.0573 62.2896 39.0999C62.1474 39.1397 61.9825 39.1753 61.7949 39.2065C61.6101 39.235 61.4295 39.2606 61.2532 39.2833C61.0798 39.3032 60.939 39.3203 60.831 39.3345C60.5694 39.3686 60.3249 39.4241 60.0974 39.5008C59.8728 39.5748 59.6908 39.6871 59.5515 39.8378C59.415 39.9856 59.3468 40.1875 59.3468 40.4434C59.3468 40.7931 59.4761 41.0575 59.7349 41.2367C59.9965 41.413 60.3277 41.5011 60.7286 41.5011ZM65.4148 42.2517V35.7007H66.3872V36.6902H66.4554C66.5749 36.3661 66.7909 36.1031 67.1037 35.9012C67.4165 35.6993 67.769 35.5984 68.1614 35.5984C68.2354 35.5984 68.3278 35.5998 68.4386 35.6026C68.5495 35.6055 68.6334 35.6097 68.6903 35.6154V36.639C68.6562 36.6305 68.578 36.6177 68.4557 36.6006C68.3363 36.5807 68.2098 36.5708 68.0761 36.5708C67.7577 36.5708 67.4733 36.6376 67.2231 36.7712C66.9758 36.902 66.7796 37.084 66.6346 37.3172C66.4924 37.5475 66.4213 37.8105 66.4213 38.1062V42.2517H65.4148ZM71.8112 42.4053C71.3961 42.4053 71.0193 42.3271 70.681 42.1707C70.3426 42.0115 70.0739 41.7826 69.8749 41.484C69.6758 41.1827 69.5763 40.8187 69.5763 40.3922C69.5763 40.0169 69.6503 39.7127 69.7981 39.4795C69.946 39.2435 70.1436 39.0587 70.3909 38.9251C70.6383 38.7914 70.9113 38.6919 71.2098 38.6265C71.5112 38.5583 71.814 38.5042 72.1183 38.4644C72.5163 38.4133 72.839 38.3749 73.0864 38.3493C73.3366 38.3208 73.5186 38.2739 73.6323 38.2085C73.7489 38.1431 73.8072 38.0294 73.8072 37.8673V37.8332C73.8072 37.4124 73.692 37.0854 73.4617 36.8523C73.2343 36.6191 72.8888 36.5025 72.4253 36.5025C71.9448 36.5025 71.5681 36.6077 71.2951 36.8181C71.0222 37.0286 70.8302 37.2532 70.7193 37.492L69.764 37.1508C69.9346 36.7528 70.1621 36.4428 70.4464 36.2211C70.7336 35.9964 71.0463 35.84 71.3847 35.7519C71.7259 35.6609 72.0614 35.6154 72.3912 35.6154C72.6016 35.6154 72.8433 35.641 73.1163 35.6922C73.3921 35.7405 73.6579 35.8415 73.9138 35.995C74.1726 36.1485 74.3872 36.3803 74.5578 36.6902C74.7284 37.0001 74.8137 37.4152 74.8137 37.9356V42.2517H73.8072V41.3646H73.756C73.6878 41.5068 73.574 41.6589 73.4148 41.821C73.2556 41.983 73.0438 42.1209 72.7793 42.2347C72.5149 42.3484 72.1922 42.4053 71.8112 42.4053ZM71.9647 41.5011C72.3628 41.5011 72.6983 41.4229 72.9713 41.2665C73.2471 41.1101 73.4546 40.9083 73.5939 40.6609C73.7361 40.4135 73.8072 40.1534 73.8072 39.8804V38.9592C73.7645 39.0104 73.6707 39.0573 73.5257 39.0999C73.3835 39.1397 73.2186 39.1753 73.031 39.2065C72.8462 39.235 72.6656 39.2606 72.4893 39.2833C72.3159 39.3032 72.1751 39.3203 72.0671 39.3345C71.8055 39.3686 71.561 39.4241 71.3335 39.5008C71.1089 39.5748 70.9269 39.6871 70.7876 39.8378C70.6511 39.9856 70.5829 40.1875 70.5829 40.4434C70.5829 40.7931 70.7122 41.0575 70.971 41.2367C71.2326 41.413 71.5638 41.5011 71.9647 41.5011ZM77.6574 38.3109V42.2517H76.6509V35.7007H77.6233V36.7243H77.7086C77.8621 36.3917 78.0953 36.1244 78.408 35.9225C78.7208 35.7178 79.1246 35.6154 79.6193 35.6154C80.0629 35.6154 80.451 35.7064 80.7836 35.8884C81.1163 36.0675 81.3751 36.3405 81.5599 36.7073C81.7447 37.0712 81.8371 37.5318 81.8371 38.0891V42.2517H80.8306V38.1574C80.8306 37.6427 80.6969 37.2418 80.4297 36.9546C80.1624 36.6646 79.7956 36.5196 79.3293 36.5196C79.008 36.5196 78.7208 36.5893 78.4678 36.7286C78.2175 36.8679 78.0199 37.0712 77.8749 37.3385C77.7299 37.6058 77.6574 37.9299 77.6574 38.3109ZM85.6041 42.4053C85.189 42.4053 84.8123 42.3271 84.4739 42.1707C84.1356 42.0115 83.8669 41.7826 83.6678 41.484C83.4688 41.1827 83.3693 40.8187 83.3693 40.3922C83.3693 40.0169 83.4432 39.7127 83.5911 39.4795C83.7389 39.2435 83.9365 39.0587 84.1839 38.9251C84.4313 38.7914 84.7042 38.6919 85.0028 38.6265C85.3042 38.5583 85.607 38.5042 85.9112 38.4644C86.3093 38.4133 86.632 38.3749 86.8794 38.3493C87.1296 38.3208 87.3116 38.2739 87.4253 38.2085C87.5419 38.1431 87.6002 38.0294 87.6002 37.8673V37.8332C87.6002 37.4124 87.485 37.0854 87.2547 36.8523C87.0272 36.6191 86.6818 36.5025 86.2183 36.5025C85.7378 36.5025 85.361 36.6077 85.0881 36.8181C84.8151 37.0286 84.6232 37.2532 84.5123 37.492L83.557 37.1508C83.7276 36.7528 83.955 36.4428 84.2393 36.2211C84.5265 35.9964 84.8393 35.84 85.1776 35.7519C85.5188 35.6609 85.8544 35.6154 86.1842 35.6154C86.3946 35.6154 86.6363 35.641 86.9092 35.6922C87.185 35.7405 87.4509 35.8415 87.7068 35.995C87.9655 36.1485 88.1802 36.3803 88.3508 36.6902C88.5214 37.0001 88.6067 37.4152 88.6067 37.9356V42.2517H87.6002V41.3646H87.549C87.4807 41.5068 87.367 41.6589 87.2078 41.821C87.0486 41.983 86.8367 42.1209 86.5723 42.2347C86.3079 42.3484 85.9851 42.4053 85.6041 42.4053ZM85.7577 41.5011C86.1557 41.5011 86.4913 41.4229 86.7642 41.2665C87.04 41.1101 87.2476 40.9083 87.3869 40.6609C87.5291 40.4135 87.6002 40.1534 87.6002 39.8804V38.9592C87.5575 39.0104 87.4637 39.0573 87.3187 39.0999C87.1765 39.1397 87.0116 39.1753 86.8239 39.2065C86.6391 39.235 86.4586 39.2606 86.2823 39.2833C86.1088 39.3032 85.9681 39.3203 85.86 39.3345C85.5985 39.3686 85.3539 39.4241 85.1265 39.5008C84.9018 39.5748 84.7199 39.6871 84.5805 39.8378C84.4441 39.9856 84.3758 40.1875 84.3758 40.4434C84.3758 40.7931 84.5052 41.0575 84.7639 41.2367C85.0255 41.413 85.3568 41.5011 85.7577 41.5011ZM85.7918 34.8136L86.8325 32.8347H88.0096L86.6789 34.8136H85.7918Z" fill="white"/>
<path d="M58.1131 51.8817H57.0554C56.9928 51.5774 56.8833 51.3102 56.727 51.0799C56.5734 50.8496 56.3858 50.6562 56.164 50.4998C55.945 50.3406 55.7019 50.2212 55.4347 50.1416C55.1674 50.062 54.8888 50.0221 54.5987 50.0221C54.0699 50.0221 53.5908 50.1558 53.1614 50.4231C52.7349 50.6903 52.3952 51.0841 52.1421 51.6045C51.8919 52.1248 51.7668 52.7631 51.7668 53.5194C51.7668 54.2758 51.8919 54.9141 52.1421 55.4344C52.3952 55.9547 52.7349 56.3485 53.1614 56.6158C53.5908 56.8831 54.0699 57.0167 54.5987 57.0167C54.8888 57.0167 55.1674 56.9769 55.4347 56.8973C55.7019 56.8177 55.945 56.6997 56.164 56.5433C56.3858 56.3841 56.5734 56.1893 56.727 55.959C56.8833 55.7259 56.9928 55.4586 57.0554 55.1572H58.1131C58.0335 55.6036 57.8885 56.0031 57.6781 56.3557C57.4676 56.7082 57.2061 57.0082 56.8933 57.2556C56.5805 57.5001 56.2294 57.6863 55.8398 57.8143C55.4532 57.9422 55.0395 58.0062 54.5987 58.0062C53.8538 58.0062 53.1913 57.8242 52.6113 57.4603C52.0312 57.0963 51.5749 56.5789 51.2422 55.9078C50.9095 55.2368 50.7432 54.4407 50.7432 53.5194C50.7432 52.5982 50.9095 51.8021 51.2422 51.131C51.5749 50.46 52.0312 49.9425 52.6113 49.5786C53.1913 49.2146 53.8538 49.0327 54.5987 49.0327C55.0395 49.0327 55.4532 49.0966 55.8398 49.2246C56.2294 49.3525 56.5805 49.5402 56.8933 49.7876C57.2061 50.0321 57.4676 50.3306 57.6781 50.6832C57.8885 51.033 58.0335 51.4324 58.1131 51.8817ZM61.6136 58.0403C61.1984 58.0403 60.8217 57.9621 60.4833 57.8057C60.145 57.6465 59.8763 57.4176 59.6773 57.1191C59.4782 56.8177 59.3787 56.4537 59.3787 56.0272C59.3787 55.6519 59.4526 55.3477 59.6005 55.1145C59.7483 54.8785 59.946 54.6937 60.1933 54.5601C60.4407 54.4265 60.7137 54.3269 61.0122 54.2615C61.3136 54.1933 61.6164 54.1393 61.9206 54.0995C62.3187 54.0483 62.6414 54.0099 62.8888 53.9843C63.139 53.9559 63.321 53.909 63.4347 53.8436C63.5513 53.7782 63.6096 53.6644 63.6096 53.5024V53.4683C63.6096 53.0474 63.4944 52.7205 63.2641 52.4873C63.0367 52.2542 62.6912 52.1376 62.2277 52.1376C61.7472 52.1376 61.3705 52.2428 61.0975 52.4532C60.8245 52.6636 60.6326 52.8882 60.5217 53.1271L59.5664 52.7859C59.737 52.3878 59.9644 52.0779 60.2488 51.8561C60.5359 51.6315 60.8487 51.4751 61.1871 51.3869C61.5283 51.296 61.8638 51.2505 62.1936 51.2505C62.404 51.2505 62.6457 51.2761 62.9187 51.3272C63.1945 51.3756 63.4603 51.4765 63.7162 51.63C63.9749 51.7836 64.1896 52.0153 64.3602 52.3252C64.5308 52.6352 64.6161 53.0503 64.6161 53.5706V57.8868H63.6096V56.9997H63.5584C63.4902 57.1418 63.3764 57.2939 63.2172 57.456C63.058 57.6181 62.8461 57.756 62.5817 57.8697C62.3173 57.9835 61.9946 58.0403 61.6136 58.0403ZM61.7671 57.1361C62.1652 57.1361 62.5007 57.058 62.7736 56.9016C63.0494 56.7452 63.257 56.5433 63.3963 56.2959C63.5385 56.0486 63.6096 55.7884 63.6096 55.5154V54.5942C63.5669 54.6454 63.4731 54.6923 63.3281 54.735C63.1859 54.7748 63.021 54.8103 62.8334 54.8416C62.6485 54.87 62.468 54.8956 62.2917 54.9184C62.1183 54.9383 61.9775 54.9553 61.8695 54.9695C61.6079 55.0037 61.3634 55.0591 61.1359 55.1359C60.9113 55.2098 60.7293 55.3221 60.59 55.4728C60.4535 55.6207 60.3853 55.8225 60.3853 56.0784C60.3853 56.4282 60.5146 56.6926 60.7734 56.8717C61.035 57.048 61.3662 57.1361 61.7671 57.1361ZM66.4533 57.8868V51.3358H67.4257V52.3594H67.511C67.6475 52.0096 67.8678 51.7381 68.172 51.5447C68.4763 51.3486 68.8416 51.2505 69.2681 51.2505C69.7003 51.2505 70.06 51.3486 70.3472 51.5447C70.6372 51.7381 70.8633 52.0096 71.0253 52.3594H71.0936C71.2613 52.021 71.5129 51.7523 71.8485 51.5533C72.184 51.3514 72.5863 51.2505 73.0555 51.2505C73.6412 51.2505 74.1203 51.4339 74.4928 51.8006C74.8652 52.1646 75.0515 52.7318 75.0515 53.5024V57.8868H74.0449V53.5024C74.0449 53.019 73.9127 52.6735 73.6483 52.466C73.3839 52.2584 73.0725 52.1546 72.7143 52.1546C72.2536 52.1546 71.8968 52.294 71.6437 52.5726C71.3907 52.8484 71.2642 53.1981 71.2642 53.6218V57.8868H70.2406V53.4C70.2406 53.0275 70.1197 52.7276 69.878 52.5001C69.6364 52.2698 69.325 52.1546 68.944 52.1546C68.6824 52.1546 68.4379 52.2243 68.2104 52.3636C67.9858 52.5029 67.8038 52.6963 67.6645 52.9437C67.528 53.1882 67.4598 53.4711 67.4598 53.7924V57.8868H66.4533ZM76.8918 60.3434V51.3358H77.8642V52.3764H77.9836C78.0576 52.2627 78.1599 52.1177 78.2907 51.9414C78.4244 51.7623 78.6149 51.603 78.8622 51.4637C79.1124 51.3215 79.4508 51.2505 79.8773 51.2505C80.4289 51.2505 80.9151 51.3884 81.3359 51.6642C81.7567 51.94 82.0851 52.3309 82.3211 52.837C82.5571 53.3431 82.6751 53.9402 82.6751 54.6283C82.6751 55.3221 82.5571 55.9235 82.3211 56.4324C82.0851 56.9385 81.7582 57.3309 81.3402 57.6096C80.9222 57.8854 80.4403 58.0233 79.8944 58.0233C79.4735 58.0233 79.1366 57.9536 78.8836 57.8143C78.6305 57.6721 78.4357 57.5115 78.2993 57.3323C78.1628 57.1504 78.0576 56.9997 77.9836 56.8802H77.8983V60.3434H76.8918ZM77.8813 54.6113C77.8813 55.106 77.9538 55.5425 78.0988 55.9206C78.2438 56.2959 78.4556 56.5902 78.7343 56.8035C79.0129 57.0139 79.3541 57.1191 79.7579 57.1191C80.1787 57.1191 80.5298 57.0082 80.8113 56.7864C81.0957 56.5618 81.3089 56.2604 81.4511 55.8822C81.5961 55.5012 81.6686 55.0776 81.6686 54.6113C81.6686 54.1507 81.5975 53.7355 81.4553 53.3659C81.316 52.9934 81.1042 52.6991 80.8199 52.483C80.5384 52.2641 80.1844 52.1546 79.7579 52.1546C79.3484 52.1546 79.0044 52.2584 78.7257 52.466C78.4471 52.6707 78.2367 52.9579 78.0945 53.3275C77.9524 53.6943 77.8813 54.1222 77.8813 54.6113ZM88.339 55.2084V51.3358H89.3456V57.8868H88.339V56.7779H88.2708C88.1172 57.1106 87.8784 57.3935 87.5543 57.6266C87.2301 57.8569 86.8207 57.9721 86.3259 57.9721C85.9165 57.9721 85.5526 57.8825 85.2341 57.7034C84.9157 57.5214 84.6654 57.2485 84.4835 56.8845C84.3015 56.5177 84.2105 56.0557 84.2105 55.4984V51.3358H85.2171V55.4301C85.2171 55.9078 85.3507 56.2888 85.618 56.5732C85.8881 56.8575 86.2321 56.9997 86.6501 56.9997C86.9003 56.9997 87.1548 56.9357 87.4135 56.8077C87.6751 56.6798 87.894 56.4836 88.0703 56.2192C88.2495 55.9547 88.339 55.6178 88.339 55.2084ZM95.8294 52.8029L94.9252 53.0588C94.8684 52.9081 94.7845 52.7617 94.6736 52.6195C94.5655 52.4745 94.4177 52.3551 94.23 52.2613C94.0424 52.1674 93.8021 52.1205 93.5092 52.1205C93.1083 52.1205 92.7742 52.2129 92.507 52.3977C92.2425 52.5797 92.1103 52.8114 92.1103 53.0929C92.1103 53.3431 92.2013 53.5408 92.3833 53.6858C92.5653 53.8308 92.8496 53.9516 93.2363 54.0483L94.2087 54.2871C94.7944 54.4293 95.2309 54.6468 95.5181 54.9397C95.8052 55.2297 95.9488 55.6036 95.9488 56.0614C95.9488 56.4367 95.8408 56.7722 95.6247 57.0679C95.4114 57.3636 95.1129 57.5968 94.729 57.7674C94.3452 57.938 93.8988 58.0233 93.3898 58.0233C92.7216 58.0233 92.1686 57.8782 91.7307 57.5882C91.2929 57.2982 91.0157 56.8746 90.8991 56.3173L91.8544 56.0784C91.9454 56.431 92.1174 56.6954 92.3705 56.8717C92.6264 57.048 92.9605 57.1361 93.3728 57.1361C93.8419 57.1361 94.2144 57.0366 94.4902 56.8376C94.7688 56.6357 94.9082 56.394 94.9082 56.1125C94.9082 55.8851 94.8286 55.6946 94.6693 55.541C94.5101 55.3847 94.2656 55.2681 93.9357 55.1913L92.8439 54.9354C92.244 54.7932 91.8033 54.5729 91.5218 54.2743C91.2431 53.9729 91.1038 53.5962 91.1038 53.1441C91.1038 52.7745 91.2076 52.4475 91.4151 52.1632C91.6255 51.8788 91.9113 51.6556 92.2724 51.4936C92.6363 51.3315 93.0486 51.2505 93.5092 51.2505C94.1575 51.2505 94.6665 51.3926 95.0361 51.677C95.4086 51.9613 95.673 52.3366 95.8294 52.8029ZM100.978 57.8868V49.1521H103.93C104.615 49.1521 105.175 49.2758 105.61 49.5231C106.048 49.7677 106.372 50.0989 106.582 50.5169C106.793 50.9349 106.898 51.4012 106.898 51.9158C106.898 52.4304 106.793 52.8982 106.582 53.319C106.375 53.7398 106.054 54.0753 105.619 54.3255C105.184 54.5729 104.626 54.6966 103.947 54.6966H101.831V53.7583H103.913C104.382 53.7583 104.758 53.6772 105.043 53.5152C105.327 53.3531 105.533 53.1342 105.661 52.8584C105.792 52.5797 105.857 52.2655 105.857 51.9158C105.857 51.5661 105.792 51.2533 105.661 50.9775C105.533 50.7017 105.326 50.4856 105.039 50.3292C104.751 50.17 104.37 50.0904 103.896 50.0904H102.036V57.8868H100.978ZM110.393 58.0403C109.978 58.0403 109.601 57.9621 109.263 57.8057C108.925 57.6465 108.656 57.4176 108.457 57.1191C108.258 56.8177 108.158 56.4537 108.158 56.0272C108.158 55.6519 108.232 55.3477 108.38 55.1145C108.528 54.8785 108.726 54.6937 108.973 54.5601C109.22 54.4265 109.493 54.3269 109.792 54.2615C110.093 54.1933 110.396 54.1393 110.7 54.0995C111.098 54.0483 111.421 54.0099 111.668 53.9843C111.919 53.9559 112.101 53.909 112.214 53.8436C112.331 53.7782 112.389 53.6644 112.389 53.5024V53.4683C112.389 53.0474 112.274 52.7205 112.044 52.4873C111.816 52.2542 111.471 52.1376 111.007 52.1376C110.527 52.1376 110.15 52.2428 109.877 52.4532C109.604 52.6636 109.412 52.8882 109.301 53.1271L108.346 52.7859C108.517 52.3878 108.744 52.0779 109.028 51.8561C109.316 51.6315 109.628 51.4751 109.967 51.3869C110.308 51.296 110.643 51.2505 110.973 51.2505C111.184 51.2505 111.425 51.2761 111.698 51.3272C111.974 51.3756 112.24 51.4765 112.496 51.63C112.755 51.7836 112.969 52.0153 113.14 52.3252C113.311 52.6352 113.396 53.0503 113.396 53.5706V57.8868H112.389V56.9997H112.338C112.27 57.1418 112.156 57.2939 111.997 57.456C111.838 57.6181 111.626 57.756 111.361 57.8697C111.097 57.9835 110.774 58.0403 110.393 58.0403ZM110.547 57.1361C110.945 57.1361 111.28 57.058 111.553 56.9016C111.829 56.7452 112.037 56.5433 112.176 56.2959C112.318 56.0486 112.389 55.7884 112.389 55.5154V54.5942C112.347 54.6454 112.253 54.6923 112.108 54.735C111.966 54.7748 111.801 54.8103 111.613 54.8416C111.428 54.87 111.248 54.8956 111.071 54.9184C110.898 54.9383 110.757 54.9553 110.649 54.9695C110.388 55.0037 110.143 55.0591 109.916 55.1359C109.691 55.2098 109.509 55.3221 109.37 55.4728C109.233 55.6207 109.165 55.8225 109.165 56.0784C109.165 56.4282 109.294 56.6926 109.553 56.8717C109.815 57.048 110.146 57.1361 110.547 57.1361ZM115.233 57.8868V51.3358H116.205V52.3252H116.274C116.393 52.0011 116.609 51.7381 116.922 51.5362C117.235 51.3343 117.587 51.2334 117.98 51.2334C118.054 51.2334 118.146 51.2348 118.257 51.2377C118.368 51.2405 118.452 51.2448 118.508 51.2505V52.2741C118.474 52.2655 118.396 52.2527 118.274 52.2357C118.154 52.2158 118.028 52.2058 117.894 52.2058C117.576 52.2058 117.292 52.2726 117.041 52.4063C116.794 52.5371 116.598 52.719 116.453 52.9522C116.311 53.1825 116.239 53.4455 116.239 53.7412V57.8868H115.233ZM121.629 58.0403C121.214 58.0403 120.837 57.9621 120.499 57.8057C120.161 57.6465 119.892 57.4176 119.693 57.1191C119.494 56.8177 119.394 56.4537 119.394 56.0272C119.394 55.6519 119.468 55.3477 119.616 55.1145C119.764 54.8785 119.962 54.6937 120.209 54.5601C120.456 54.4265 120.729 54.3269 121.028 54.2615C121.329 54.1933 121.632 54.1393 121.936 54.0995C122.334 54.0483 122.657 54.0099 122.905 53.9843C123.155 53.9559 123.337 53.909 123.45 53.8436C123.567 53.7782 123.625 53.6644 123.625 53.5024V53.4683C123.625 53.0474 123.51 52.7205 123.28 52.4873C123.052 52.2542 122.707 52.1376 122.244 52.1376C121.763 52.1376 121.386 52.2428 121.113 52.4532C120.84 52.6636 120.648 52.8882 120.538 53.1271L119.582 52.7859C119.753 52.3878 119.98 52.0779 120.265 51.8561C120.552 51.6315 120.864 51.4751 121.203 51.3869C121.544 51.296 121.88 51.2505 122.209 51.2505C122.42 51.2505 122.661 51.2761 122.934 51.3272C123.21 51.3756 123.476 51.4765 123.732 51.63C123.991 51.7836 124.205 52.0153 124.376 52.3252C124.547 52.6352 124.632 53.0503 124.632 53.5706V57.8868H123.625V56.9997H123.574C123.506 57.1418 123.392 57.2939 123.233 57.456C123.074 57.6181 122.862 57.756 122.598 57.8697C122.333 57.9835 122.01 58.0403 121.629 58.0403ZM121.783 57.1361C122.181 57.1361 122.516 57.058 122.789 56.9016C123.065 56.7452 123.273 56.5433 123.412 56.2959C123.554 56.0486 123.625 55.7884 123.625 55.5154V54.5942C123.583 54.6454 123.489 54.6923 123.344 54.735C123.202 54.7748 123.037 54.8103 122.849 54.8416C122.664 54.87 122.484 54.8956 122.307 54.9184C122.134 54.9383 121.993 54.9553 121.885 54.9695C121.624 55.0037 121.379 55.0591 121.152 55.1359C120.927 55.2098 120.745 55.3221 120.606 55.4728C120.469 55.6207 120.401 55.8225 120.401 56.0784C120.401 56.4282 120.53 56.6926 120.789 56.8717C121.051 57.048 121.382 57.1361 121.783 57.1361ZM127.476 53.9459V57.8868H126.469V51.3358H127.441V52.3594H127.527C127.68 52.0267 127.913 51.7594 128.226 51.5575C128.539 51.3528 128.943 51.2505 129.437 51.2505C129.881 51.2505 130.269 51.3415 130.602 51.5234C130.934 51.7026 131.193 51.9755 131.378 52.3423C131.563 52.7062 131.655 53.1669 131.655 53.7242V57.8868H130.649V53.7924C130.649 53.2778 130.515 52.8768 130.248 52.5897C129.981 52.2997 129.614 52.1546 129.147 52.1546C128.826 52.1546 128.539 52.2243 128.286 52.3636C128.036 52.5029 127.838 52.7062 127.693 52.9735C127.548 53.2408 127.476 53.5649 127.476 53.9459ZM135.422 58.0403C135.007 58.0403 134.63 57.9621 134.292 57.8057C133.954 57.6465 133.685 57.4176 133.486 57.1191C133.287 56.8177 133.187 56.4537 133.187 56.0272C133.187 55.6519 133.261 55.3477 133.409 55.1145C133.557 54.8785 133.755 54.6937 134.002 54.5601C134.249 54.4265 134.522 54.3269 134.821 54.2615C135.122 54.1933 135.425 54.1393 135.729 54.0995C136.127 54.0483 136.45 54.0099 136.698 53.9843C136.948 53.9559 137.13 53.909 137.243 53.8436C137.36 53.7782 137.418 53.6644 137.418 53.5024V53.4683C137.418 53.0474 137.303 52.7205 137.073 52.4873C136.845 52.2542 136.5 52.1376 136.036 52.1376C135.556 52.1376 135.179 52.2428 134.906 52.4532C134.633 52.6636 134.441 52.8882 134.33 53.1271L133.375 52.7859C133.546 52.3878 133.773 52.0779 134.058 51.8561C134.345 51.6315 134.657 51.4751 134.996 51.3869C135.337 51.296 135.673 51.2505 136.002 51.2505C136.213 51.2505 136.454 51.2761 136.727 51.3272C137.003 51.3756 137.269 51.4765 137.525 51.63C137.784 51.7836 137.998 52.0153 138.169 52.3252C138.34 52.6352 138.425 53.0503 138.425 53.5706V57.8868H137.418V56.9997H137.367C137.299 57.1418 137.185 57.2939 137.026 57.456C136.867 57.6181 136.655 57.756 136.39 57.8697C136.126 57.9835 135.803 58.0403 135.422 58.0403ZM135.576 57.1361C135.974 57.1361 136.309 57.058 136.582 56.9016C136.858 56.7452 137.066 56.5433 137.205 56.2959C137.347 56.0486 137.418 55.7884 137.418 55.5154V54.5942C137.376 54.6454 137.282 54.6923 137.137 54.735C136.995 54.7748 136.83 54.8103 136.642 54.8416C136.457 54.87 136.277 54.8956 136.1 54.9184C135.927 54.9383 135.786 54.9553 135.678 54.9695C135.417 55.0037 135.172 55.0591 134.945 55.1359C134.72 55.2098 134.538 55.3221 134.399 55.4728C134.262 55.6207 134.194 55.8225 134.194 56.0784C134.194 56.4282 134.323 56.6926 134.582 56.8717C134.844 57.048 135.175 57.1361 135.576 57.1361ZM142.906 60.4799C142.42 60.4799 142.002 60.4173 141.652 60.2922C141.303 60.17 141.011 60.0079 140.778 59.806C140.548 59.607 140.364 59.3937 140.228 59.1663L141.03 58.6033C141.121 58.7227 141.236 58.8592 141.375 59.0127C141.514 59.1691 141.705 59.3042 141.947 59.4179C142.191 59.5345 142.511 59.5928 142.906 59.5928C143.435 59.5928 143.872 59.4648 144.216 59.2089C144.56 58.953 144.732 58.5521 144.732 58.0062V56.6755H144.646C144.572 56.7949 144.467 56.9428 144.331 57.1191C144.197 57.2925 144.004 57.4475 143.751 57.584C143.501 57.7176 143.162 57.7844 142.736 57.7844C142.207 57.7844 141.732 57.6593 141.311 57.4091C140.893 57.1589 140.562 56.7949 140.317 56.3173C140.076 55.8396 139.955 55.2595 139.955 54.5772C139.955 53.9061 140.073 53.3218 140.309 52.8242C140.545 52.3238 140.873 51.9371 141.294 51.6642C141.715 51.3884 142.201 51.2505 142.753 51.2505C143.179 51.2505 143.518 51.3215 143.768 51.4637C144.021 51.603 144.214 51.7623 144.348 51.9414C144.484 52.1177 144.59 52.2627 144.663 52.3764H144.766V51.3358H145.738V58.0744C145.738 58.6374 145.61 59.0952 145.354 59.4478C145.101 59.8032 144.76 60.0633 144.331 60.2283C143.904 60.396 143.429 60.4799 142.906 60.4799ZM142.872 56.8802C143.276 56.8802 143.617 56.7878 143.896 56.603C144.174 56.4182 144.386 56.1524 144.531 55.8055C144.676 55.4586 144.749 55.0435 144.749 54.5601C144.749 54.0881 144.678 53.6716 144.536 53.3105C144.393 52.9493 144.183 52.6664 143.904 52.4617C143.626 52.257 143.282 52.1546 142.872 52.1546C142.446 52.1546 142.09 52.2627 141.806 52.4788C141.524 52.6949 141.313 52.9849 141.17 53.3488C141.031 53.7128 140.961 54.1165 140.961 54.5601C140.961 55.015 141.033 55.4174 141.175 55.7671C141.32 56.114 141.533 56.3869 141.814 56.586C142.099 56.7821 142.451 56.8802 142.872 56.8802ZM151.709 55.2084V51.3358H152.716V57.8868H151.709V56.7779H151.641C151.487 57.1106 151.249 57.3935 150.924 57.6266C150.6 57.8569 150.191 57.9721 149.696 57.9721C149.287 57.9721 148.923 57.8825 148.604 57.7034C148.286 57.5214 148.036 57.2485 147.854 56.8845C147.672 56.5177 147.581 56.0557 147.581 55.4984V51.3358H148.587V55.4301C148.587 55.9078 148.721 56.2888 148.988 56.5732C149.258 56.8575 149.602 56.9997 150.02 56.9997C150.27 56.9997 150.525 56.9357 150.784 56.8077C151.045 56.6798 151.264 56.4836 151.441 56.2192C151.62 55.9547 151.709 55.6178 151.709 55.2084ZM156.487 58.0403C156.072 58.0403 155.695 57.9621 155.357 57.8057C155.018 57.6465 154.75 57.4176 154.551 57.1191C154.352 56.8177 154.252 56.4537 154.252 56.0272C154.252 55.6519 154.326 55.3477 154.474 55.1145C154.622 54.8785 154.819 54.6937 155.067 54.5601C155.314 54.4265 155.587 54.3269 155.886 54.2615C156.187 54.1933 156.49 54.1393 156.794 54.0995C157.192 54.0483 157.515 54.0099 157.762 53.9843C158.013 53.9559 158.194 53.909 158.308 53.8436C158.425 53.7782 158.483 53.6644 158.483 53.5024V53.4683C158.483 53.0474 158.368 52.7205 158.138 52.4873C157.91 52.2542 157.565 52.1376 157.101 52.1376C156.621 52.1376 156.244 52.2428 155.971 52.4532C155.698 52.6636 155.506 52.8882 155.395 53.1271L154.44 52.7859C154.61 52.3878 154.838 52.0779 155.122 51.8561C155.409 51.6315 155.722 51.4751 156.061 51.3869C156.402 51.296 156.737 51.2505 157.067 51.2505C157.278 51.2505 157.519 51.2761 157.792 51.3272C158.068 51.3756 158.334 51.4765 158.59 51.63C158.848 51.7836 159.063 52.0153 159.234 52.3252C159.404 52.6352 159.49 53.0503 159.49 53.5706V57.8868H158.483V56.9997H158.432C158.364 57.1418 158.25 57.2939 158.091 57.456C157.931 57.6181 157.72 57.756 157.455 57.8697C157.191 57.9835 156.868 58.0403 156.487 58.0403ZM156.641 57.1361C157.039 57.1361 157.374 57.058 157.647 56.9016C157.923 56.7452 158.131 56.5433 158.27 56.2959C158.412 56.0486 158.483 55.7884 158.483 55.5154V54.5942C158.44 54.6454 158.347 54.6923 158.202 54.735C158.059 54.7748 157.895 54.8103 157.707 54.8416C157.522 54.87 157.341 54.8956 157.165 54.9184C156.992 54.9383 156.851 54.9553 156.743 54.9695C156.481 55.0037 156.237 55.0591 156.009 55.1359C155.785 55.2098 155.603 55.3221 155.463 55.4728C155.327 55.6207 155.259 55.8225 155.259 56.0784C155.259 56.4282 155.388 56.6926 155.647 56.8717C155.908 57.048 156.24 57.1361 156.641 57.1361ZM156.675 50.4486L157.715 48.4697H158.893L157.562 50.4486H156.675Z" fill="white"/>
</svg>
