<svg width="1440" height="1024" viewBox="0 0 1440 1024" fill="none" xmlns="http://www.w3.org/2000/svg">
<rect width="1440" height="1024" fill="#1E1E1E"/>
<rect width="1440" height="1024" fill="white"/>
<!-- CENTRAL -->
<path id="bloco-central1" d="M358.127 917.31C359.905 922.426 365.432 925.197 370.595 923.56L420.411 907.766C425.698 906.091 428.611 900.433 426.904 895.156L398.956 808.769C397.621 804.643 393.779 801.847 389.442 801.847L332.062 801.847C325.183 801.847 320.358 808.632 322.616 815.13L358.127 917.31Z" fill="#00FF1E"/>
<path id="bloco-central2" d="M318 767C318 772.523 322.477 777 328 777L381.5 777C387.023 777 391.5 772.523 391.5 767V715.5C391.5 709.977 387.023 705.5 381.5 705.5L328 705.5C322.477 705.5 318 709.977 318 715.5V767Z" fill="#00FF1E"/>
<path d="M358.127 917.31C359.905 922.426 365.432 925.197 370.595 923.56L420.411 907.766C425.698 906.091 428.611 900.433 426.904 895.156L398.956 808.769C397.621 804.643 393.779 801.847 389.442 801.847L332.062 801.847C325.183 801.847 320.358 808.632 322.616 815.13L358.127 917.31Z" stroke="#00FF1E"/>
<path d="M318 767C318 772.523 322.477 777 328 777L381.5 777C387.023 777 391.5 772.523 391.5 767V715.5C391.5 709.977 387.023 705.5 381.5 705.5L328 705.5C322.477 705.5 318 709.977 318 715.5V767Z" stroke="#00FF1E"/>
<path id="bloco-central3" d="M367.211 696C359.892 696 355.053 688.397 358.151 681.767L376.5 642.5L434.169 553.954C437.325 549.108 443.922 547.941 448.548 551.411L472.632 569.474C476.796 572.597 477.868 578.391 475.098 582.797L427.921 657.83C427.641 658.276 427.396 658.743 427.189 659.228L414.092 689.924C412.52 693.609 408.901 696 404.894 696H367.211Z" fill="#00FF1E"/>
<path id="bloco-central4" d="M639.214 719.699C642.611 714.997 641.309 708.401 636.379 705.344L589.297 676.146C584.683 673.284 578.628 674.627 575.657 679.171L539.322 734.742C538.777 735.576 538.111 736.324 537.345 736.96L500 768L458.5 797L419.317 820.76C414.891 823.444 413.244 829.061 415.521 833.71L442.576 888.948C445.201 894.307 451.905 896.189 456.936 892.979L500 865.5L555.04 826.186C555.678 825.73 556.26 825.201 556.774 824.61L596 779.5L639.214 719.699Z" fill="#00FF1E"/>
<path d="M367.211 696C359.892 696 355.053 688.397 358.151 681.767L376.5 642.5L434.169 553.954C437.325 549.108 443.922 547.941 448.548 551.411L472.632 569.474C476.796 572.597 477.868 578.391 475.098 582.797L427.921 657.83C427.641 658.276 427.396 658.743 427.189 659.228L414.092 689.924C412.52 693.609 408.901 696 404.894 696H367.211Z" stroke="#00FF1E"/>
<path d="M639.214 719.699C642.611 714.997 641.309 708.401 636.379 705.344L589.297 676.146C584.683 673.284 578.628 674.627 575.657 679.171L539.322 734.742C538.777 735.576 538.111 736.324 537.345 736.96L500 768L458.5 797L419.317 820.76C414.891 823.444 413.244 829.061 415.521 833.71L442.576 888.948C445.201 894.307 451.905 896.189 456.936 892.979L500 865.5L555.04 826.186C555.678 825.73 556.26 825.201 556.774 824.61L596 779.5L639.214 719.699Z" stroke="#00FF1E"/>
<!-- ADMINISTRATIVO -->
<rect id="bloco-administrativo" x="677" y="714" width="235" height="174" rx="10" transform="rotate(-90 677 714)" fill="#44A5FF"/>
<!-- LABORATORIOS -->
<rect id="bloco-laboratorios" x="632" y="920" width="98" height="215" rx="10" transform="rotate(-90 632 920)" fill="#FFB937"/>
<!-- DIDATICO -->
<rect id="bloco-didatico" x="361" y="421" width="299" height="135" rx="10" transform="rotate(-90 361 421)" fill="#FF4040"/>
<!-- ESPORTES -->
<rect id="bloco-esportes" x="787" y="415" width="202" height="128" rx="10" transform="rotate(-90 787 415)" fill="#FFF94E"/>
<!-- ESTACIONAMENTO -->
<rect x="331" y="472" width="323" height="73" fill="#D9D9D9"/>
<line x1="589.5" y1="543.228" x2="589.5" y2="508" stroke="white"/>
<line x1="620.5" y1="543.228" x2="620.5" y2="508" stroke="white"/>
<line x1="552.5" y1="543.114" x2="552.5" y2="507.886" stroke="white"/>
<line x1="400.5" y1="543.114" x2="400.5" y2="507.886" stroke="white"/>
<line x1="362.5" y1="543.114" x2="362.5" y2="507.886" stroke="white"/>
<line x1="516.5" y1="543.114" x2="516.5" y2="507.886" stroke="white"/>
<line x1="438.5" y1="543.114" x2="438.5" y2="507.886" stroke="white"/>
<line x1="475.5" y1="543.114" x2="475.5" y2="507.886" stroke="white"/>
<!-- GUARITA -->
<rect x="257" y="415" width="52" height="54" rx="10" fill="black"/>
</svg>
